<svg width="40" height="30" viewBox="0 0 40 30" fill="none" xmlns="http://www.w3.org/2000/svg">
<g clip-path="url(#clip0_192_38307)">
<path d="M9.3833 0H30.6118V30H9.38336L9.3833 0Z" fill="white"/>
<path d="M-1.22803 0H9.38328V30H-1.22803V0ZM30.6118 0H41.2231V30H30.6177L30.6118 0ZM12.565 14.4961L11.7329 14.7774L15.5708 18.1465C15.8638 19.0078 15.4712 19.2598 15.2192 19.7168L19.3794 19.1894L19.2798 23.3789L20.147 23.3554L19.9536 19.1953L24.1255 19.6934C23.8677 19.1484 23.6392 18.8613 23.8735 17.9941L27.7056 14.8007L27.0376 14.5547C26.4868 14.1328 27.272 12.5215 27.3892 11.5019C27.3892 11.5019 25.1567 12.2695 25.0102 11.8652L24.436 10.7696L22.4028 13.0078C22.1802 13.0606 22.0864 12.9726 22.0337 12.7851L22.9712 8.10938L21.4829 8.94725C21.3598 9.00588 21.2368 8.959 21.1548 8.8125L19.7192 5.94137L18.2427 8.92387C18.1313 9.02931 18.02 9.041 17.9263 8.97075L16.5083 8.17387L17.3638 12.8086C17.2935 12.9961 17.1294 13.0429 16.9419 12.9434L14.9907 10.7344C14.7388 11.1446 14.5688 11.8066 14.229 11.959C13.895 12.0996 12.7642 11.6777 12.0083 11.5137C12.2661 12.4453 13.0747 13.9922 12.565 14.5019V14.4961Z" fill="#D52B1E"/>
</g>
<defs>
<clipPath id="clip0_192_38307">
<rect width="40" height="30" rx="10" fill="white"/>
</clipPath>
</defs>
</svg>
