<svg width="100" height="42" viewBox="0 0 100 42" fill="none" xmlns="http://www.w3.org/2000/svg">
<path d="M0 12.9294C0 5.60686 3.24365 0.2453 12.2838 0.2453C20.4587 0.2453 22.7943 3.34049 23.5289 6.43464C24.135 9.52983 22.0148 12.5376 18.2089 11.4044C14.6622 10.3586 15.7866 4.90967 11.1155 4.90967C7.56885 4.90967 6.40056 6.82746 6.40056 10.01C6.40056 13.497 8.26063 14.8482 11.1155 15.1104C13.4939 15.3284 15.3111 15.0672 17.4732 14.6744C22.4902 13.7592 23.2687 15.459 23.2687 18.51C23.2687 21.9095 19.9812 25.7461 12.2828 25.7461C3.4171 25.7451 0 20.7321 0 12.9294Z" fill="white"/>
<path d="M36.8514 18.4226C33.6078 18.4226 33.6507 26.0073 29.455 26.0073C25.692 26.0073 25.389 20.9512 25.389 19.2072C25.39 7.74264 31.2294 0.419083 38.1054 0.419083C44.9815 0.419083 50.9076 7.52464 50.9076 19.5116C50.9076 22.6931 49.4801 26.0505 46.3232 26.0505C41.7389 26.0505 39.7053 18.4226 36.8504 18.4226H36.8514ZM42.6908 10.664C42.6908 7.52567 40.6144 5.17189 38.0626 5.17189C35.3811 5.17189 33.4343 7.70048 33.4343 10.664C33.4343 14.2384 35.5107 14.5438 38.0626 14.5438C40.7879 14.5438 42.6908 14.2384 42.6908 10.664Z" fill="white"/>
<path d="M51.5575 4.60427C51.5575 1.94508 52.3361 0.2453 54.8012 0.2453C57.6561 0.2453 58.9101 4.03768 60.5967 7.74264C62.1537 11.1864 62.9751 12.2764 64.4893 12.2764C66.0034 12.2764 67.0411 11.0558 68.6849 7.61205C70.4592 3.95027 71.4102 0.2453 73.6162 0.2453C75.3895 0.2453 76.2976 1.29108 76.2976 4.60427C76.2976 14.3248 69.593 25.8325 63.9271 25.8325C58.2611 25.8325 51.5575 14.3248 51.5575 4.60427Z" fill="white"/>
<path d="M78.374 20.0781C78.7627 15.2832 78.5474 11.9268 78.2444 7.21924C77.8546 0.724489 82.8288 0.288489 85.8571 0.288489C89.7069 0.288489 100 0.593895 100 4.16827C100 8.30924 83.4777 5.69427 83.4777 8.70205C83.4777 11.9278 97.8369 9.05064 97.8369 13.279C97.8369 16.3742 88.6243 15.1536 88.6243 17.8992C88.6243 20.6447 99.999 18.2478 99.999 21.997C99.999 25.7461 90.2242 26.0073 85.8561 26.0073C82.2666 26.0073 77.8975 25.6155 78.373 20.0792L78.374 20.0781Z" fill="white"/>
<path d="M10.736 41.5583V33.1468L7.32193 41.5583H6.81074L3.412 33.1468V41.5583H2.16413V31.4501H3.9538L7.06684 39.149L10.1952 31.4501H11.9849V41.5583H10.736Z" fill="white"/>
<path d="M26.0451 41.5583L25.1574 39.3156H20.0751L19.1874 41.5583H17.8038L21.8342 31.4501H23.383L27.4276 41.5583H26.0441H26.0451ZM22.6168 32.571L20.4363 38.1937H24.7819L22.6168 32.571Z" fill="white"/>
<path d="M40.3461 41.5583L34.4965 33.4049V41.5583H33.2486V31.4501H34.5271L40.3022 39.4369V31.4501H41.5501V41.5583H40.3461Z" fill="white"/>
<path d="M55.6093 41.5583L54.7216 39.3156H49.6393L48.7516 41.5583H47.368L51.3984 31.4501H52.9472L56.9918 41.5583H55.6083H55.6093ZM52.181 32.571L50.0005 38.1937H54.3461L52.181 32.571Z" fill="white"/>
<path d="M67.0074 31.2835C68.7818 31.2835 70.0154 32.0722 70.9021 33.1777L69.9093 33.7988C69.2777 32.9802 68.2094 32.4044 67.0064 32.4044C64.8107 32.4044 63.1414 34.1021 63.1414 36.5114C63.1414 38.9207 64.8107 40.6339 67.0064 40.6339C68.2094 40.6339 69.2022 40.0426 69.6981 39.5429V37.4811H66.2544V36.3592H70.9459V40.0118C70.0134 41.0575 68.6451 41.7547 67.0054 41.7547C64.1485 41.7547 61.8476 39.6477 61.8476 36.5104C61.8476 33.3731 64.1485 31.2815 67.0054 31.2815L67.0074 31.2835Z" fill="white"/>
<path d="M77.4894 31.4501H84.0613V32.572H78.7382V35.8307H83.9562V36.9526H78.7382V40.4385H84.0613V41.5604H77.4894V31.4501Z" fill="white"/>
<path d="M96.3615 41.5583L93.8045 37.5418H91.8047V41.5583H90.5568V31.4501H94.5871C96.4217 31.4501 97.7297 32.6316 97.7297 34.496C97.7297 36.3603 96.4962 37.3145 95.1279 37.4359L97.8348 41.5583H96.3615ZM94.4361 32.571H91.8047V36.4353H94.4361C95.6238 36.4353 96.436 35.6322 96.436 34.4949C96.436 33.3576 95.6238 32.5699 94.4361 32.5699V32.571Z" fill="white"/>
</svg>
