<svg width="40" height="30" viewBox="0 0 40 30" fill="none" xmlns="http://www.w3.org/2000/svg">
<path d="M0 10C0 4.47715 4.47715 0 10 0H30C35.5228 0 40 4.47715 40 10V20C40 25.5228 35.5228 30 30 30H10C4.47715 30 0 25.5228 0 20V10Z" fill="#003399"/>
<path d="M19.7275 6.33853C19.8133 6.07459 20.1867 6.07459 20.2725 6.33853C20.3108 6.45656 20.4208 6.53647 20.5449 6.53647C20.8224 6.53647 20.9378 6.89159 20.7133 7.05471C20.6129 7.12766 20.5709 7.25697 20.6092 7.375C20.695 7.63893 20.3929 7.85841 20.1684 7.69529C20.068 7.62234 19.932 7.62234 19.8316 7.69529C19.6071 7.85841 19.305 7.63893 19.3908 7.375C19.4291 7.25697 19.3871 7.12766 19.2867 7.05471C19.0622 6.89159 19.1776 6.53647 19.4551 6.53647C19.5792 6.53647 19.6892 6.45656 19.7275 6.33853Z" fill="#FFE600"/>
<path d="M15.7275 7.33853C15.8133 7.07459 16.1867 7.07459 16.2725 7.33853C16.3108 7.45656 16.4208 7.53647 16.5449 7.53647C16.8224 7.53647 16.9378 7.89159 16.7133 8.05471C16.6129 8.12766 16.5709 8.25697 16.6092 8.375C16.695 8.63893 16.3929 8.85841 16.1684 8.69529C16.068 8.62234 15.932 8.62234 15.8316 8.69529C15.6071 8.85841 15.305 8.63893 15.3908 8.375C15.4291 8.25697 15.3871 8.12766 15.2867 8.05471C15.0622 7.89159 15.1776 7.53647 15.4551 7.53647C15.5792 7.53647 15.6892 7.45656 15.7275 7.33853Z" fill="#FFE600"/>
<path d="M23.7275 7.33853C23.8133 7.07459 24.1867 7.07459 24.2725 7.33853C24.3108 7.45656 24.4208 7.53647 24.5449 7.53647C24.8224 7.53647 24.9378 7.89159 24.7133 8.05471C24.6129 8.12766 24.5709 8.25697 24.6092 8.375C24.695 8.63893 24.3929 8.85841 24.1684 8.69529C24.068 8.62234 23.932 8.62234 23.8316 8.69529C23.6071 8.85841 23.305 8.63893 23.3908 8.375C23.4291 8.25697 23.3871 8.12766 23.2867 8.05471C23.0622 7.89159 23.1776 7.53647 23.4551 7.53647C23.5792 7.53647 23.6892 7.45656 23.7275 7.33853Z" fill="#FFE600"/>
<path d="M23.7275 21.3385C23.8133 21.0746 24.1867 21.0746 24.2725 21.3385C24.3108 21.4566 24.4208 21.5365 24.5449 21.5365C24.8224 21.5365 24.9378 21.8916 24.7133 22.0547C24.6129 22.1277 24.5709 22.257 24.6092 22.375C24.695 22.6389 24.3929 22.8584 24.1684 22.6953C24.068 22.6223 23.932 22.6223 23.8316 22.6953C23.6071 22.8584 23.305 22.6389 23.3908 22.375C23.4291 22.257 23.3871 22.1277 23.2867 22.0547C23.0622 21.8916 23.1776 21.5365 23.4551 21.5365C23.5792 21.5365 23.6892 21.4566 23.7275 21.3385Z" fill="#FFE600"/>
<path d="M15.7275 21.3385C15.8133 21.0746 16.1867 21.0746 16.2725 21.3385C16.3108 21.4566 16.4208 21.5365 16.5449 21.5365C16.8224 21.5365 16.9378 21.8916 16.7133 22.0547C16.6129 22.1277 16.5709 22.257 16.6092 22.375C16.695 22.6389 16.3929 22.8584 16.1684 22.6953C16.068 22.6223 15.932 22.6223 15.8316 22.6953C15.6071 22.8584 15.305 22.6389 15.3908 22.375C15.4291 22.257 15.3871 22.1277 15.2867 22.0547C15.0622 21.8916 15.1776 21.5365 15.4551 21.5365C15.5792 21.5365 15.6892 21.4566 15.7275 21.3385Z" fill="#FFE600"/>
<path d="M12.7275 18.3385C12.8133 18.0746 13.1867 18.0746 13.2725 18.3385C13.3108 18.4566 13.4208 18.5365 13.5449 18.5365C13.8224 18.5365 13.9378 18.8916 13.7133 19.0547C13.6129 19.1277 13.5709 19.257 13.6092 19.375C13.695 19.6389 13.3929 19.8584 13.1684 19.6953C13.068 19.6223 12.932 19.6223 12.8316 19.6953C12.6071 19.8584 12.305 19.6389 12.3908 19.375C12.4291 19.257 12.3871 19.1277 12.2867 19.0547C12.0622 18.8916 12.1776 18.5365 12.4551 18.5365C12.5792 18.5365 12.6892 18.4566 12.7275 18.3385Z" fill="#FFE600"/>
<path d="M12.7275 10.3385C12.8133 10.0746 13.1867 10.0746 13.2725 10.3385C13.3108 10.4566 13.4208 10.5365 13.5449 10.5365C13.8224 10.5365 13.9378 10.8916 13.7133 11.0547C13.6129 11.1277 13.5709 11.257 13.6092 11.375C13.695 11.6389 13.3929 11.8584 13.1684 11.6953C13.068 11.6223 12.932 11.6223 12.8316 11.6953C12.6071 11.8584 12.305 11.6389 12.3908 11.375C12.4291 11.257 12.3871 11.1277 12.2867 11.0547C12.0622 10.8916 12.1776 10.5365 12.4551 10.5365C12.5792 10.5365 12.6892 10.4566 12.7275 10.3385Z" fill="#FFE600"/>
<path d="M26.7275 10.3385C26.8133 10.0746 27.1867 10.0746 27.2725 10.3385C27.3108 10.4566 27.4208 10.5365 27.5449 10.5365C27.8224 10.5365 27.9378 10.8916 27.7133 11.0547C27.6129 11.1277 27.5709 11.257 27.6092 11.375C27.695 11.6389 27.3929 11.8584 27.1684 11.6953C27.068 11.6223 26.932 11.6223 26.8316 11.6953C26.6071 11.8584 26.305 11.6389 26.3908 11.375C26.4291 11.257 26.3871 11.1277 26.2867 11.0547C26.0622 10.8916 26.1776 10.5365 26.4551 10.5365C26.5792 10.5365 26.6892 10.4566 26.7275 10.3385Z" fill="#FFE600"/>
<path d="M26.7275 18.3385C26.8133 18.0746 27.1867 18.0746 27.2725 18.3385C27.3108 18.4566 27.4208 18.5365 27.5449 18.5365C27.8224 18.5365 27.9378 18.8916 27.7133 19.0547C27.6129 19.1277 27.5709 19.257 27.6092 19.375C27.695 19.6389 27.3929 19.8584 27.1684 19.6953C27.068 19.6223 26.932 19.6223 26.8316 19.6953C26.6071 19.8584 26.305 19.6389 26.3908 19.375C26.4291 19.257 26.3871 19.1277 26.2867 19.0547C26.0622 18.8916 26.1776 18.5365 26.4551 18.5365C26.5792 18.5365 26.6892 18.4566 26.7275 18.3385Z" fill="#FFE600"/>
<path d="M19.7275 22.3385C19.8133 22.0746 20.1867 22.0746 20.2725 22.3385C20.3108 22.4566 20.4208 22.5365 20.5449 22.5365C20.8224 22.5365 20.9378 22.8916 20.7133 23.0547C20.6129 23.1277 20.5709 23.257 20.6092 23.375C20.695 23.6389 20.3929 23.8584 20.1684 23.6953C20.068 23.6223 19.932 23.6223 19.8316 23.6953C19.6071 23.8584 19.305 23.6389 19.3908 23.375C19.4291 23.257 19.3871 23.1277 19.2867 23.0547C19.0622 22.8916 19.1776 22.5365 19.4551 22.5365C19.5792 22.5365 19.6892 22.4566 19.7275 22.3385Z" fill="#FFE600"/>
<path d="M11.7275 14.3385C11.8133 14.0746 12.1867 14.0746 12.2725 14.3385C12.3108 14.4566 12.4208 14.5365 12.5449 14.5365C12.8224 14.5365 12.9378 14.8916 12.7133 15.0547C12.6129 15.1277 12.5709 15.257 12.6092 15.375C12.695 15.6389 12.3929 15.8584 12.1684 15.6953C12.068 15.6223 11.932 15.6223 11.8316 15.6953C11.6071 15.8584 11.305 15.6389 11.3908 15.375C11.4291 15.257 11.3871 15.1277 11.2867 15.0547C11.0622 14.8916 11.1776 14.5365 11.4551 14.5365C11.5792 14.5365 11.6892 14.4566 11.7275 14.3385Z" fill="#FFE600"/>
<path d="M27.7275 14.3385C27.8133 14.0746 28.1867 14.0746 28.2725 14.3385C28.3108 14.4566 28.4208 14.5365 28.5449 14.5365C28.8224 14.5365 28.9378 14.8916 28.7133 15.0547C28.6129 15.1277 28.5709 15.257 28.6092 15.375C28.695 15.6389 28.3929 15.8584 28.1684 15.6953C28.068 15.6223 27.932 15.6223 27.8316 15.6953C27.6071 15.8584 27.305 15.6389 27.3908 15.375C27.4291 15.257 27.3871 15.1277 27.2867 15.0547C27.0622 14.8916 27.1776 14.5365 27.4551 14.5365C27.5792 14.5365 27.6892 14.4566 27.7275 14.3385Z" fill="#FFE600"/>
</svg>
