<svg width="72" height="70" viewBox="0 0 72 70" fill="none" xmlns="http://www.w3.org/2000/svg">
<g clip-path="url(#clip0_416_20800)">
<path d="M28.1455 29.9572C31.7575 39.8829 25.1238 54.051 22.3422 55.0615C19.2004 56.2022 5.5926 50.0787 1.76041 39.5627C-0.891108 32.2785 2.86104 24.2239 10.1452 21.5724C17.4294 18.9209 25.484 22.683 28.1355 29.9572H28.1455Z" fill="#48BDF7"/>
<path d="M23.6729 30.2279C26.3745 37.6521 23.6929 45.5066 18.6601 47.3377C14.3676 48.8986 6.08288 45.0764 3.25126 37.3019C1.29014 31.9188 4.07173 25.9654 9.45481 24.0043C14.8379 22.0432 21.3616 23.8743 23.6729 30.2279Z" fill="#48BDF7"/>
<path d="M21.7918 55.1914C21.7918 55.1914 21.3316 56.5822 21.3516 57.3927C21.3716 58.2031 21.9619 57.953 22.3522 57.5428C22.7424 57.1225 22.8725 57.6228 23.2927 57.4427C23.7129 57.2626 23.5829 56.6022 24.1832 56.7623C24.7835 56.9224 25.3239 56.7023 25.0237 56.242C24.5234 55.4616 22.5122 54.6211 22.5122 54.6211L21.7818 55.1914H21.7918Z" fill="#48BDF7"/>
<path d="M7.1435 28.0262C8.10405 28.3364 8.38421 30.1374 7.77386 32.0585C7.15351 33.9696 5.87278 35.2703 4.91223 34.9602C3.95168 34.65 3.67152 32.849 4.28187 30.9279C4.90222 29.0168 6.18295 27.716 7.1435 28.0262Z" fill="white"/>
<path d="M5.67267 36.7916C6.25301 36.4213 7.32362 37.0717 8.05404 38.2224C8.78445 39.383 8.90452 40.6238 8.31418 40.984C7.73385 41.3542 6.66324 40.7138 5.93282 39.5531C5.20241 38.3925 5.08234 37.1518 5.67267 36.7916Z" fill="white"/>
<path d="M21.6117 55.4312C21.5317 55.4312 21.4516 55.3712 21.4416 55.2811C21.4316 55.1911 21.5017 55.101 21.5917 55.091C22.122 55.031 22.6423 54.8409 23.0826 54.5507C23.1626 54.5007 23.2627 54.5207 23.3127 54.6007C23.3627 54.6808 23.3427 54.7808 23.2627 54.8309C22.7724 55.1511 22.2021 55.3612 21.6217 55.4312C21.6217 55.4312 21.6117 55.4312 21.6017 55.4312H21.6117Z" fill="white"/>
<path d="M28.1355 69.1596C28.1355 69.1596 28.0955 69.1596 28.0755 69.1496C27.9854 69.1196 27.9454 69.0195 27.9754 68.9294C28.5057 67.4886 27.8053 66.2379 25.7742 65.0072C24.5235 64.2468 24.9037 63.0761 25.2339 62.0355C25.424 61.4552 25.6141 60.8648 25.534 60.3645C25.464 59.9143 25.2239 59.5941 24.9337 59.394C24.8336 59.8142 24.6735 60.1744 24.4934 60.4246C24.1532 60.9049 23.6229 60.9049 23.2727 60.7047C22.8825 60.4746 22.7324 60.0344 22.9125 59.6241C23.1627 59.0538 23.723 58.7436 24.3734 58.8237C24.4734 58.8337 24.5735 58.8537 24.6735 58.8937C24.7536 58.2233 24.6535 57.4729 24.2633 56.8926C23.4629 55.7119 22.3622 55.1816 22.3522 55.1716C22.2722 55.1316 22.2321 55.0315 22.2722 54.9414C22.3122 54.8614 22.4123 54.8214 22.4923 54.8614C22.5423 54.8814 23.693 55.4317 24.5435 56.6924C25.0137 57.3828 25.1038 58.2633 24.9937 59.0238C25.404 59.2639 25.7542 59.6842 25.8642 60.2945C25.9643 60.8748 25.7542 61.5052 25.554 62.1256C25.2139 63.1762 24.9237 64.0767 25.9443 64.697C28.1155 66.0078 28.886 67.4286 28.2956 69.0195C28.2756 69.0895 28.2056 69.1296 28.1355 69.1296V69.1596ZM24.1833 59.1639C23.8231 59.1639 23.4228 59.324 23.2227 59.7742C23.0826 60.0844 23.2527 60.3145 23.4428 60.4246C23.673 60.5547 24.0032 60.5446 24.2233 60.2445C24.3934 60.0043 24.5435 59.6541 24.6235 59.2439C24.5235 59.2039 24.4334 59.1839 24.3333 59.1739C24.2833 59.1739 24.2333 59.1739 24.1833 59.1739V59.1639Z" fill="white"/>
<path d="M36.3303 69.9994C36.3303 69.9994 36.2302 69.9794 36.2002 69.9394C36.1401 69.8693 36.1502 69.7593 36.2302 69.6992C36.8105 69.239 37.4909 68.2184 37.651 66.7275C37.8011 65.3267 37.5209 63.1055 35.3297 60.454C33.2285 57.9025 33.4086 56.0414 33.8388 55.0008C32.5081 52.3293 33.7088 47.1764 33.7688 46.9462C33.7888 46.8562 33.8789 46.7962 33.9689 46.8262C34.059 46.8462 34.119 46.9362 34.099 47.0263C34.089 47.0763 32.9483 51.9791 34.0389 54.6106C34.7694 53.3399 36.1502 52.7996 37.0907 52.9196C37.7511 53.0097 38.2514 53.3899 38.4715 53.9602C38.7116 54.5906 38.5615 55.341 38.1013 55.8713C37.7811 56.2415 37.0407 56.8019 35.6499 56.5017C34.9895 56.3516 34.4592 55.9814 34.069 55.3911C33.7588 56.3816 33.7788 58.0226 35.5998 60.2438C37.8611 62.9954 38.1513 65.3067 37.9912 66.7676C37.8211 68.3585 37.0807 69.4691 36.4403 69.9694C36.4103 69.9894 36.3703 70.0094 36.3403 70.0094L36.3303 69.9994ZM34.219 54.9808C34.219 54.9808 34.2691 55.0809 34.2991 55.1209C34.6493 55.6812 35.1196 56.0214 35.7099 56.1615C36.9306 56.4317 37.561 55.9514 37.8311 55.6412C38.2113 55.201 38.3314 54.5906 38.1413 54.0703C37.9712 53.61 37.571 53.3199 37.0307 53.2398C36.1902 53.1298 34.9495 53.6301 34.2991 54.8007C34.2691 54.8508 34.2391 54.9108 34.209 54.9808H34.219Z" fill="white"/>
<path d="M51.9191 18.2104C51.9191 31.9182 37.5509 46.2464 33.7087 46.2464C29.3662 46.2464 15.4983 32.7387 15.4983 18.2104C15.4983 8.15466 23.653 0 33.7087 0C43.7644 0 51.9191 8.15466 51.9191 18.2104Z" fill="#FF82A8"/>
<path d="M46.356 16.5503C46.356 26.8061 39.6021 35.1909 32.6481 35.1909C26.7147 35.1909 18.3199 26.8562 18.3199 16.12C18.3199 8.68579 24.3434 2.65234 31.7876 2.65234C39.2319 2.65234 46.366 7.77527 46.366 16.5503H46.356Z" fill="#FF82A8"/>
<path d="M32.9683 46.1556C32.9683 46.1556 31.7877 47.6465 31.4575 48.637C31.1273 49.6276 31.9477 49.5976 32.6081 49.2574C33.2685 48.9272 33.1985 49.5876 33.7988 49.5576C34.3891 49.5275 34.5292 48.667 35.1896 49.1273C35.85 49.5876 36.6004 49.5576 36.4503 48.8672C36.1902 47.6965 34.109 45.7754 34.109 45.7754L32.9683 46.1556Z" fill="#FF82A8"/>
<path d="M27.1749 6.53395C28.2155 7.33441 27.7552 9.66574 26.1543 11.7269C24.5534 13.7881 22.4122 14.7987 21.3816 13.9982C20.341 13.1878 20.8013 10.8664 22.4022 8.80525C24.0031 6.74407 26.1443 5.73349 27.1749 6.53395Z" fill="white"/>
<path d="M21.4918 16.5697C22.3622 16.3796 23.3828 17.6404 23.753 19.3714C24.1233 21.1123 23.723 22.6732 22.8525 22.8533C21.982 23.0435 20.9614 21.7827 20.5912 20.0517C20.221 18.3107 20.6213 16.7499 21.5018 16.5597L21.4918 16.5697Z" fill="white"/>
<path d="M33.7087 46.4763C33.3285 46.4763 32.9583 46.4363 32.5881 46.3463C32.498 46.3262 32.438 46.2362 32.468 46.1461C32.488 46.0561 32.5781 45.9961 32.6681 46.0161C33.3485 46.1762 34.0689 46.1762 34.7493 46.0161C34.8394 45.9961 34.9294 46.0461 34.9494 46.1461C34.9694 46.2362 34.9194 46.3262 34.8294 46.3463C34.4592 46.4363 34.0889 46.4763 33.7087 46.4763Z" fill="white"/>
<path d="M70.0595 38.5712C66.1072 48.3668 51.709 54.4703 48.9674 53.3597C45.8657 52.109 39.8422 38.4612 44.0246 28.0752C46.9263 20.8911 55.1009 17.4091 62.285 20.3008C69.4792 23.2024 72.9511 31.3771 70.0495 38.5712H70.0595Z" fill="#FFD990"/>
<path d="M66.5475 35.7791C63.5958 43.1033 56.3517 47.1556 51.3788 45.1545C47.1364 43.4435 43.5343 35.0687 46.6361 27.3944C48.7773 22.0813 54.8208 19.5098 60.1438 21.6511C65.4569 23.7923 69.0889 29.5156 66.5575 35.7892L66.5475 35.7791Z" fill="#FFD990"/>
<path d="M48.4571 53.0898C48.4571 53.0898 47.1864 53.8203 46.6561 54.4306C46.1358 55.041 46.7362 55.2611 47.2965 55.2111C47.8668 55.161 47.6267 55.6213 48.0669 55.7714C48.5072 55.9215 48.8474 55.3411 49.1876 55.8614C49.5278 56.3817 50.0681 56.5818 50.1581 56.0315C50.3082 55.121 49.3777 53.1499 49.3777 53.1499L48.4571 53.0898Z" fill="#FFD990"/>
<path d="M55.7313 23.0926C56.2416 23.9631 55.241 25.494 53.5 26.5046C51.759 27.5152 49.938 27.6252 49.4277 26.7547C48.9174 25.8842 49.9179 24.3534 51.6589 23.3428C53.3999 22.3322 55.221 22.2222 55.7313 23.0926Z" fill="white"/>
<path d="M48.7774 28.625C49.4578 28.7451 49.818 29.9357 49.5878 31.2865C49.3577 32.6373 48.6173 33.6379 47.9369 33.5178C47.2565 33.3977 46.8963 32.2171 47.1264 30.8663C47.3566 29.5155 48.097 28.5149 48.7774 28.635V28.625Z" fill="white"/>
<path d="M44.0847 69.8496C44.0847 69.8496 44.0346 69.8496 44.0046 69.8295C43.9246 69.7895 43.8945 69.6795 43.9346 69.5994C45.2653 67.078 44.9852 65.4971 44.665 64.7567C44.1447 64.9267 43.6044 64.8167 43.3042 64.5665C43.0741 64.3764 43.004 64.1063 43.1041 63.8461C43.1941 63.626 43.3742 63.4859 43.6044 63.4559C43.9846 63.4159 44.4048 63.686 44.735 64.1563C44.765 64.1963 44.7951 64.2464 44.8351 64.3064C44.8551 64.2964 44.8751 64.2864 44.8851 64.2764C45.3154 64.0062 45.9657 63.2358 45.4254 61.1646C45.2653 60.5543 45.3854 59.9739 45.7456 59.5137C45.3754 59.1735 45.0952 58.6632 45.0052 57.9728C44.665 55.3613 48.8674 53.3301 49.0475 53.2501C49.1275 53.2101 49.2276 53.2501 49.2776 53.3301C49.3176 53.4102 49.2776 53.5202 49.1976 53.5603C49.1576 53.5803 45.0352 55.5714 45.3454 57.9328C45.4254 58.5731 45.6756 59.0034 45.9757 59.2735C45.9957 59.2535 46.0258 59.2335 46.0458 59.2135C46.6361 58.7032 47.5366 58.4731 48.0469 58.6932C48.267 58.7932 48.3871 58.9633 48.3971 59.1735C48.4171 59.6337 47.9669 59.9939 47.3065 60.044C46.8762 60.084 46.406 59.9839 46.0058 59.7138C45.7656 60.0239 45.5955 60.4642 45.7456 61.0745C46.3359 63.3458 45.5655 64.2263 45.0552 64.5565C45.0252 64.5765 44.9952 64.5866 44.9752 64.6066C45.3154 65.427 45.6255 67.108 44.2347 69.7395C44.2047 69.7995 44.1447 69.8295 44.0847 69.8295V69.8496ZM43.6744 63.7961C43.6744 63.7961 43.6544 63.7961 43.6344 63.7961C43.5343 63.8061 43.4643 63.8661 43.4143 63.9762C43.3943 64.0262 43.3342 64.1663 43.5143 64.3164C43.7244 64.4865 44.1147 64.5565 44.5049 64.4565C44.4849 64.4165 44.4649 64.3864 44.4449 64.3664C44.1747 63.9762 43.8745 63.8061 43.6644 63.8061L43.6744 63.7961ZM46.2459 59.4936C46.6061 59.7038 46.9863 59.7538 47.2765 59.7338C47.7367 59.6938 48.0669 59.4736 48.0569 59.2135C48.0569 59.1635 48.0369 59.0834 47.9068 59.0234C47.5566 58.8733 46.7962 59.0234 46.2559 59.4836C46.2559 59.4836 46.2559 59.4836 46.2459 59.4936Z" fill="white"/>
<path d="M49.8279 53.8107H49.8079C49.2275 53.7207 48.6672 53.5005 48.1869 53.1604C48.1069 53.1103 48.0969 53.0003 48.1469 52.9202C48.1969 52.8402 48.307 52.8302 48.387 52.8802C48.8173 53.1904 49.3276 53.4005 49.8579 53.4705C49.9479 53.4805 50.018 53.5706 49.998 53.6606C49.988 53.7407 49.9179 53.8007 49.8279 53.8007V53.8107Z" fill="white"/>
</g>
<defs>
<clipPath id="clip0_416_20800">
<rect width="70.1601" height="70" fill="white" transform="translate(0.919922)"/>
</clipPath>
</defs>
</svg>
