<svg width="200" height="53" viewBox="0 0 200 53" fill="none" xmlns="http://www.w3.org/2000/svg">
<path d="M87.5103 19.0857C91.1786 14.63 98.8047 17.0077 98.8047 22.9293V34.2847C98.8047 34.488 98.7056 34.593 98.5075 34.5997H96.4117C96.0357 34.5997 96.0611 34.5997 96.0611 34.2492V22.8937C96.0764 21.3086 94.9866 19.9266 93.4395 19.5735C91.5469 19.0273 89.5731 20.1197 89.0269 22.0097C88.9278 22.3526 88.8821 22.7108 88.8872 23.0665V34.0027C88.8872 34.3872 88.689 34.5794 88.2927 34.5794H86.423C86.2299 34.5794 86.169 34.5184 86.1969 34.3431V22.9877C86.1969 21.085 84.6752 19.5303 82.7725 19.4922H79.277C79.0153 19.4922 79.0052 19.4922 79.0052 19.7539V34.0891C79.0052 34.4261 78.8307 34.5946 78.4818 34.5946H76.5334C76.364 34.5946 76.2768 34.504 76.2717 34.3228V17.2846C76.2717 16.9883 76.4258 16.8401 76.7341 16.8401H82.7268C84.5736 16.8401 86.3265 17.6606 87.5052 19.0857H87.5103Z" fill="white"/>
<path d="M160.373 34.6175H158.897C158.137 34.554 157.573 33.8884 157.634 33.1288C157.634 33.1161 157.634 33.1034 157.639 33.0882V17.216C157.639 16.7359 157.568 16.7969 158.059 16.7969H169.782C173.169 16.7334 175.976 19.4033 176.08 22.7896V34.3203C176.08 34.6531 176.08 34.6251 175.783 34.6251H174.805C174.032 34.6556 173.385 34.0535 173.354 33.2813C173.354 33.2432 173.354 33.2051 173.354 33.1644V23.2062C173.38 22.6295 173.27 22.0554 173.032 21.5296C172.503 20.2975 171.281 19.5049 169.94 19.5303H160.619C160.445 19.5303 160.354 19.6209 160.347 19.8021C160.36 24.7406 160.368 29.679 160.373 34.6175Z" fill="white"/>
<path d="M153.804 26.2927V34.3812C153.804 34.5819 153.732 34.6353 153.549 34.6251H152.422C151.69 34.6251 151.088 34.0459 151.06 33.3143V18.4633C150.961 17.7063 151.494 17.0153 152.251 16.9163C152.909 16.8299 153.537 17.2262 153.743 17.8587C153.788 18.0543 153.809 18.2525 153.804 18.4532V26.2902V26.2927Z" fill="white"/>
<path d="M72.3875 26.2318V34.427C72.3875 34.5667 72.3875 34.6277 72.2046 34.6277H70.9293C70.2409 34.5845 69.6973 34.0256 69.6719 33.3346C69.743 28.0938 69.5245 22.8505 69.7506 17.7063C70.0351 17.0103 70.8303 16.6749 71.5289 16.962C72.009 17.1576 72.3367 17.6098 72.3723 18.128V26.1987L72.39 26.2343L72.3875 26.2318Z" fill="white"/>
<path d="M71.0259 14.254C70.1622 14.2489 69.4661 13.5452 69.4712 12.6815C69.4763 11.8178 70.18 11.1217 71.0437 11.1268C71.9074 11.1319 72.6035 11.8355 72.5984 12.6993V12.7069C72.5882 13.5681 71.8871 14.259 71.0259 14.254Z" fill="white"/>
<path d="M152.434 14.254C151.586 14.259 150.892 13.5732 150.887 12.7247V12.717C150.877 11.8584 151.566 11.1547 152.424 11.1446C153.283 11.1344 153.987 11.8228 153.997 12.6815C154.007 13.5401 153.318 14.2438 152.46 14.254C152.452 14.254 152.442 14.254 152.434 14.254Z" fill="white"/>
<path d="M178.719 38.6262V41.0116C178.719 41.2656 178.676 41.3088 178.448 41.3088C178.219 41.3088 178.168 41.3088 178.168 41.0217V38.2527C178.168 38.0165 178.168 37.9809 178.448 37.9657C178.646 37.9631 178.844 38.0139 179.017 38.113C180.764 38.9869 182.433 39.7998 184.161 40.6203V38.235C184.161 38.0165 184.222 37.9631 184.423 37.9631C184.623 37.9631 184.72 38.0165 184.727 38.235V41.0395C184.727 41.2758 184.666 41.3113 184.423 41.3113C184.275 41.291 184.13 41.2402 184.003 41.164L179.139 38.7888C179.014 38.7049 178.869 38.649 178.719 38.6313V38.6262Z" fill="white"/>
<path d="M99.5389 40.6178V38.2248C99.5389 38.0139 99.5999 37.9631 99.8006 37.9631C100.001 37.9631 100.088 38.0165 100.088 38.235V41.0471C100.088 41.2732 100.088 41.3012 99.826 41.3012C99.666 41.2935 99.5085 41.2453 99.3713 41.1614L94.5065 38.7862C94.3896 38.7075 94.2601 38.6541 94.1229 38.6287C94.1026 38.7506 94.1026 38.8751 94.1229 38.9945V41.0573C94.1229 41.2681 94.0619 41.3113 93.8435 41.3113C93.625 41.3113 93.5564 41.3113 93.5564 41.0675V38.2553C93.5564 38.0724 93.6529 38.019 93.8104 38.0012C94.0213 37.9962 94.2296 38.052 94.4125 38.1587C96.1171 38.9539 97.8115 39.7998 99.5415 40.6229L99.5389 40.6178Z" fill="white"/>
<path d="M154.645 37.9276C155.567 37.8971 156.489 38.0368 157.36 38.3391C157.457 38.3391 157.614 38.3391 157.586 38.522C157.556 38.6592 157.431 38.7557 157.289 38.7481C157.129 38.738 156.969 38.7075 156.817 38.6516C155.46 38.2832 154.032 38.2604 152.668 38.5906C152.302 38.6694 151.957 38.8193 151.647 39.0276C150.519 39.9015 152.145 40.6356 152.94 40.7753C154.291 41.0548 155.689 40.9938 157.01 40.6001C157.228 40.5137 157.568 40.4425 157.629 40.7474C157.629 40.8871 157.515 40.8947 157.429 40.9227C156.974 41.0929 156.502 41.2148 156.021 41.2885C154.467 41.5705 152.864 41.3698 151.426 40.7118C150.806 40.379 150.359 39.6728 150.903 39.0606C151.766 38.1003 153.428 37.9174 154.642 37.9251L154.645 37.9276Z" fill="white"/>
<path d="M86.9159 39.0199V38.1994C86.9159 37.9276 86.9946 37.9555 87.2029 37.9631C87.4112 37.9708 87.49 38.0165 87.5001 38.207V39.9548C87.4392 40.8287 86.3722 41.1437 85.6406 41.2656C84.2535 41.5578 82.8081 41.3901 81.5252 40.7855C81.2026 40.5772 81.0095 40.2164 81.0197 39.8329V38.3036C81.0197 38.0495 81.0806 37.9885 81.3169 37.9885C81.5531 37.9885 81.5963 38.0419 81.604 38.268V39.6931C81.4719 41.1513 84.9572 40.9506 85.8768 40.7245C86.4281 40.5924 87.02 40.3231 86.926 39.6499C86.9031 39.4416 86.9006 39.2308 86.9184 39.0199H86.9159Z" fill="white"/>
<path d="M108.773 37.9708H111.463C111.596 37.9708 111.796 37.9022 111.822 38.1181C111.822 38.3315 111.651 38.5017 111.438 38.5042C111.428 38.5042 111.42 38.5042 111.41 38.5042H109.54C109.208 38.5042 109.043 38.6677 109.043 38.9945V40.9786C109.043 41.258 108.982 41.3113 108.72 41.3012C108.458 41.291 108.476 41.2478 108.466 41.0217V38.7761C108.466 38.5144 108.466 38.5042 108.204 38.5042H106.108C105.854 38.5042 105.786 38.4255 105.707 38.1994C105.628 37.9733 105.707 37.9886 105.847 37.9809C106.825 37.9555 107.795 37.9809 108.773 37.9733V37.9708Z" fill="white"/>
<path d="M147.244 22.7794C147.102 19.3525 144.214 16.6876 140.789 16.8223H127.231C127.092 16.8223 126.838 16.7537 126.848 16.9696V28.4317C126.83 29.3208 127.021 30.1998 127.407 31C128.364 33.2533 130.595 34.6937 133.041 34.6429C136.859 34.7115 140.685 34.6429 144.493 34.6861C144.516 34.7572 144.516 34.8334 144.493 34.9046C144.422 35.6438 144.115 36.3424 143.619 36.8962C142.933 37.6583 141.945 38.08 140.919 38.0495H130.061C129.317 38.1537 128.794 38.8396 128.898 39.5864C128.966 40.0767 129.294 40.4908 129.757 40.6712C129.934 40.722 130.122 40.7423 130.308 40.7321H141.097C144.508 40.6991 147.247 37.9073 147.214 34.4981C147.214 34.4651 147.214 34.432 147.214 34.399C147.239 30.5377 147.285 26.6585 147.249 22.7794H147.244ZM144.529 31.6122C144.529 31.9628 144.529 31.9273 144.206 31.9273H133.12C131.189 31.9552 129.602 30.4157 129.574 28.4851C129.574 28.4673 129.574 28.4495 129.574 28.4317V19.9418C129.574 19.5227 129.52 19.5582 129.939 19.5582H140.998C142.928 19.5354 144.511 21.0799 144.536 23.008C144.536 23.0233 144.536 23.0385 144.536 23.0512C144.519 25.9244 144.529 28.7645 144.529 31.6122Z" fill="white"/>
<path d="M193.588 28.5537C195.897 28.7213 198.108 27.5934 199.327 25.6272C201.44 21.7658 198.278 16.7512 193.929 16.8045H179.88C179.558 16.8045 179.576 16.8045 179.576 17.1017V28.5969C179.563 30.8679 180.843 32.951 182.878 33.9595C183.856 34.4702 184.948 34.7166 186.048 34.6759H197.02C197.808 34.7928 198.539 34.2466 198.656 33.4591C198.666 33.3905 198.671 33.3219 198.671 33.2508C198.633 32.5471 198.075 31.9832 197.371 31.94H185.805C183.922 31.94 182.375 30.4488 182.309 28.5689L193.586 28.5511L193.588 28.5537ZM182.294 25.4697V19.9063C182.294 19.731 182.233 19.5049 182.494 19.5303H193.695C195.626 19.4998 197.213 21.0367 197.246 22.9674C197.249 23.1986 197.231 23.4272 197.19 23.6533C196.875 25.2334 195.173 25.8812 193.695 25.8279H182.426C182.243 25.8279 182.304 25.6018 182.294 25.4697V25.4697Z" fill="white"/>
<path d="M122.969 22.0986C122.562 19.0908 120.009 16.8375 116.976 16.8045H107.165C106.502 16.774 105.918 17.2287 105.786 17.8791C105.636 18.631 106.124 19.3626 106.876 19.5125C107.041 19.5455 107.211 19.5481 107.376 19.5201H116.592C118.388 19.4084 119.976 20.6785 120.261 22.4542C120.301 22.7574 120.174 22.909 119.877 22.909H109.063C106.713 22.848 104.259 23.7829 103.184 26.0285C101.254 29.9331 104.452 34.7648 108.854 34.6683H122.71C123.06 34.6683 123.032 34.6683 123.032 34.3457C122.989 30.2659 123.136 26.1784 122.971 22.0986H122.969ZM120.347 26.0133V31.7799C120.347 31.9908 120.136 31.9196 120.007 31.9272H108.816C105.321 31.9958 103.766 26.7729 107.523 25.8126C107.897 25.7084 108.28 25.6551 108.667 25.6551H120.154C120.38 25.6195 120.294 25.8736 120.312 26.0209L120.347 26.0133V26.0133Z" fill="white"/>
<path d="M74.9814 38.2959C73.9678 37.9352 72.8907 37.798 71.8186 37.8946H70.0709C69.799 37.8946 69.7559 37.9377 69.7559 38.1562V41.0395C69.7559 41.2504 69.8346 41.3012 70.0607 41.3012C70.2868 41.3012 70.3325 41.3012 70.3401 41.0471V40.2952C70.3401 40.1631 70.3935 40.1123 70.5154 40.1199C71.9914 40.0666 73.5562 40.2952 74.9433 39.683C75.7816 39.3603 75.774 38.6338 74.9788 38.2934L74.9814 38.2959ZM74.7375 39.3273C73.8509 39.6347 72.9084 39.7389 71.9761 39.6322H70.5967C70.4037 39.6322 70.3605 39.5712 70.3706 39.3959C70.3783 39.2206 70.3706 38.8192 70.3706 38.522C70.3706 38.3747 70.3706 38.3213 70.5637 38.3213C71.6865 38.2883 72.8094 38.3188 73.9271 38.4077C74.2117 38.4306 74.4885 38.5093 74.74 38.644C75.0805 38.8701 75.0906 39.1241 74.74 39.3248L74.7375 39.3273Z" fill="white"/>
<path d="M198.872 40.9862L195.806 38.1816C195.562 37.8819 195.123 37.8387 194.823 38.0826C194.787 38.113 194.752 38.1461 194.724 38.1816L191.693 40.9608C191.614 41.0395 191.5 41.0827 191.482 41.2402C191.711 41.3723 192 41.3368 192.191 41.1538C192.374 40.9887 192.575 40.8388 192.75 40.6636C192.882 40.5289 193.067 40.4603 193.255 40.4705H196.619C196.908 40.4273 197.203 40.4273 197.493 40.4705C198.087 40.6966 198.262 41.5095 199.065 41.2224C199.025 41.1284 198.958 41.0446 198.872 40.9862V40.9862ZM193.542 39.9548C193.542 39.876 193.596 39.8506 193.639 39.8075C194.111 39.3705 194.599 38.9336 195.072 38.4966C195.204 38.3747 195.283 38.3391 195.43 38.4966C195.946 38.9869 196.469 39.4569 197.002 39.9472C195.852 40.0386 194.696 40.0564 193.542 40.0005V39.9573V39.9548Z" fill="white"/>
<path d="M171.251 41.037C170.212 40.0843 169.155 39.1495 168.131 38.1816C167.819 37.8742 167.318 37.8742 167.003 38.1816C166.025 39.1165 165.012 40.0259 164.008 40.943C163.929 41.0217 163.746 41.0827 163.807 41.2148C163.868 41.3469 164.051 41.2936 164.191 41.3012C164.3 41.2885 164.402 41.2402 164.478 41.1615C164.689 40.9786 164.897 40.8033 165.098 40.6102C165.207 40.5086 165.352 40.4552 165.499 40.4629H169.615C169.765 40.4552 169.909 40.5086 170.016 40.6102C170.191 40.7855 170.392 40.9328 170.575 41.1081C170.689 41.2199 170.842 41.2885 171.002 41.3012H171.149C171.22 41.3012 171.314 41.3012 171.342 41.2148C171.367 41.1284 171.289 41.0929 171.246 41.0395L171.251 41.037ZM165.817 39.9802C165.898 39.8481 166.005 39.7312 166.132 39.6398L167.407 38.4687C167.486 38.4001 167.554 38.3112 167.679 38.4687L169.356 40.0158L165.817 39.9802V39.9802Z" fill="white"/>
<path d="M124.251 40.976L121.211 38.1968C120.969 37.8895 120.522 37.8387 120.217 38.0825C120.174 38.1156 120.136 38.1562 120.103 38.1968L117.062 40.976C116.991 41.0446 116.879 41.0979 116.862 41.2631C117.116 41.3748 117.41 41.3215 117.614 41.131C117.779 40.9658 117.972 40.8261 118.137 40.6585C118.274 40.5289 118.457 40.4628 118.642 40.4755H122.085C122.641 40.4019 123.197 40.6178 123.561 41.0446C123.695 41.2123 123.896 41.3113 124.112 41.3164C124.226 41.3164 124.366 41.3164 124.417 41.2478C124.47 41.1792 124.356 41.0471 124.251 40.976V40.976ZM118.853 39.9726C119.465 39.3959 120.05 38.8726 120.601 38.3315L122.349 39.9726H118.853Z" fill="white"/>
<path d="M28.1269 30.7028C28.0736 29.3488 29.1278 28.2056 30.4819 28.1523C30.5504 28.1497 30.619 28.1497 30.6876 28.1523C32.067 28.1675 33.1746 29.298 33.1594 30.6774C33.1442 32.0568 32.0137 33.1644 30.6343 33.1492C29.3336 33.233 28.2133 32.2448 28.1295 30.9467C28.1244 30.8654 28.1244 30.7841 28.1269 30.7053V30.7028Z" fill="white"/>
<path d="M22.2663 30.5986C22.2257 29.2878 23.2545 28.1904 24.5679 28.1497C24.639 28.1497 24.7101 28.1497 24.7838 28.1523C26.1734 28.0964 27.3445 29.1735 27.4004 30.5631C27.4563 31.9526 26.3791 33.1237 24.9896 33.1796C24.893 33.1847 24.799 33.1796 24.705 33.1746C23.3358 33.1517 22.2434 32.0212 22.2663 30.652C22.2663 30.6342 22.2663 30.6164 22.2663 30.5961V30.5986Z" fill="white"/>
<path d="M30.6597 22.2993C31.7952 22.251 32.8088 23.0004 33.0959 24.0978C33.5074 25.3223 32.8495 26.6509 31.625 27.0624C31.5361 27.0929 31.4421 27.1183 31.3507 27.1361C30.4514 27.3749 29.4937 27.1183 28.8357 26.4629C27.8958 25.4798 27.9288 23.92 28.9119 22.9801C29.3819 22.5304 30.0119 22.284 30.6622 22.2967L30.6597 22.2993Z" fill="white"/>
<path d="M22.3449 24.8854C22.256 23.5237 23.2874 22.345 24.649 22.2561C26.0107 22.1672 27.1894 23.1986 27.2783 24.5602C27.324 25.2512 27.0776 25.9295 26.5975 26.4299C25.0784 28.038 22.2637 27.1717 22.3424 24.8828L22.3449 24.8854Z" fill="white"/>
<path d="M30.581 38.8624C29.2651 38.9056 28.1626 37.8717 28.1219 36.5558C28.0838 35.3999 28.8815 34.3838 30.0145 34.145C30.5937 33.9824 31.2135 34.0281 31.7623 34.2771C32.974 34.8207 33.5151 36.2408 32.9715 37.4525C32.5548 38.3823 31.5971 38.9463 30.5835 38.865L30.581 38.8624Z" fill="white"/>
<path d="M36.5126 28.1523C37.3611 28.1319 38.1435 28.6121 38.5119 29.3742C39.8125 31.8459 36.8606 34.4752 34.7369 32.3972C33.7716 31.4115 33.7893 29.8289 34.775 28.8636C35.2399 28.4088 35.8597 28.1548 36.5101 28.1523H36.5126Z" fill="white"/>
<path d="M27.2988 36.4516C27.3267 37.6685 26.4122 38.6999 25.203 38.8192C22.1114 39.1165 21.141 34.7826 24.2859 34.084C25.6298 33.7944 26.9559 34.648 27.2455 35.9918C27.2785 36.1417 27.2963 36.2967 27.3013 36.4516H27.2988Z" fill="white"/>
<path d="M34.0331 24.7279C33.9874 23.7346 34.6072 22.8302 35.5522 22.5177C36.5608 22.1824 37.6734 22.5355 38.3034 23.3916C39.1545 24.4078 39.0198 25.9244 38.0037 26.7754C37.7522 26.9862 37.4626 27.1412 37.1501 27.2352C35.8317 27.5934 34.4751 26.816 34.1144 25.5001C34.0458 25.2486 34.0179 24.9895 34.0306 24.7279H34.0331Z" fill="white"/>
<path d="M33.073 19.1365C33.1594 21.1358 30.8451 21.87 29.3336 21.0494C28.2311 20.4601 27.8145 19.0908 28.4039 17.9883C28.6909 17.4523 29.1787 17.0534 29.763 16.8832C31.2745 16.3853 33.162 17.4345 33.073 19.1365V19.1365Z" fill="white"/>
<path d="M19.1392 33.106C18.3872 33.1034 17.6886 32.7249 17.2695 32.1025C16.421 31.1143 16.5327 29.6232 17.5235 28.7747C18.5117 27.9262 20.0029 28.038 20.8514 29.0287C21.7379 30.0728 21.6084 31.6402 20.5643 32.5268C20.1629 32.8672 19.6625 33.0704 19.1392 33.1085V33.106Z" fill="white"/>
<path d="M19.0323 27.3495C16.8756 27.3495 16.0372 24.5449 17.5208 23.1732C18.3769 22.2485 19.8173 22.1926 20.742 23.0487C20.9859 23.2748 21.1764 23.5491 21.3034 23.8565C21.8216 25.1724 21.1738 26.6585 19.8579 27.1768C19.5937 27.2809 19.3143 27.3393 19.0323 27.352V27.3495Z" fill="white"/>
<path d="M24.9921 16.8655C26.2115 16.802 27.2505 17.7368 27.3165 18.9562C27.3445 19.5049 27.1692 20.046 26.8186 20.4728C25.6043 22.0884 22.5381 21.6617 22.4517 19.4338C22.3425 18.1255 23.3129 16.9772 24.6212 16.868C24.7457 16.8578 24.8702 16.8578 24.9946 16.868L24.9921 16.8655Z" fill="white"/>
<path d="M38.7075 36.19C38.6745 37.5948 37.5085 38.7049 36.1037 38.6694C35.8598 38.6643 35.6185 38.6236 35.3873 38.5474C34.6557 38.3544 34.1069 37.7472 33.9901 37.0004C33.7183 35.6286 34.6125 34.2949 35.9843 34.023C36.3983 33.9418 36.8277 33.9646 37.2316 34.0891C38.1512 34.3609 38.7634 35.2297 38.7075 36.1849V36.19Z" fill="white"/>
<path d="M21.5397 36.477C21.5879 37.6151 20.7064 38.5754 19.5684 38.6236C19.5252 38.6236 19.4794 38.6236 19.4337 38.6236C18.0949 38.5576 17.0077 37.5135 16.8908 36.1773C16.8299 34.9884 17.7444 33.9722 18.9333 33.9113C19.2127 33.896 19.4921 33.9367 19.7563 34.0281C20.8309 34.3533 21.56 35.3517 21.5371 36.4745L21.5397 36.477Z" fill="white"/>
<path d="M36.068 16.962C37.3992 16.9086 38.5195 17.9451 38.5728 19.2737C38.5728 19.2966 38.5728 19.322 38.5728 19.3448C38.6668 20.4753 37.826 21.466 36.698 21.56C36.4694 21.5804 36.2382 21.56 36.0147 21.5016C33.454 21.1256 32.9129 17.0382 36.068 16.9594V16.962Z" fill="white"/>
<path d="M30.6267 39.6652C32.443 39.6118 33.8402 41.6492 32.4532 43.0972C31.6987 43.8898 30.5479 44.1641 29.5191 43.7958C28.4547 43.4224 27.8932 42.2538 28.2692 41.1894C28.3683 40.9049 28.5309 40.6483 28.7417 40.4324C29.2422 39.9319 29.9204 39.655 30.6292 39.6626L30.6267 39.6652Z" fill="white"/>
<path d="M39.65 30.5707C39.6169 29.646 40.1402 28.7924 40.9786 28.4038C41.9109 27.8779 43.0947 28.2082 43.6205 29.1405C43.6967 29.2776 43.7577 29.4224 43.8009 29.5749C44.3064 31.0153 43.4503 33.0704 41.7483 32.9815C40.5035 32.8926 39.5661 31.8155 39.6525 30.5707H39.65Z" fill="white"/>
<path d="M27.4206 41.8677C27.4206 43.9381 24.7989 44.4893 23.4119 43.3004C22.7133 42.7847 22.4288 41.8778 22.7031 41.0548C22.919 40.313 23.5592 39.7719 24.3289 39.683C25.6753 39.3857 27.4206 40.3638 27.4206 41.8677V41.8677Z" fill="white"/>
<path d="M41.6416 22.5965C43.1963 22.5432 44.1311 24.1614 43.905 25.5586C43.7323 26.6941 42.6729 27.474 41.5374 27.3012C41.1132 27.2377 40.7194 27.0421 40.412 26.7474C38.9437 25.5078 39.5381 22.5889 41.6441 22.599L41.6416 22.5965Z" fill="white"/>
<path d="M11.8611 30.3802C11.8179 29.4783 12.3564 28.6476 13.1973 28.3174C13.9746 27.9922 14.8739 28.2412 15.3718 28.9194C16.0374 29.7628 16.1644 30.9136 15.6945 31.8815C15.2296 32.8087 14.1017 33.1847 13.1744 32.7198C13.0093 32.6385 12.8569 32.5318 12.7248 32.4048C12.1634 31.8815 11.8484 31.1448 11.8611 30.3776V30.3802Z" fill="white"/>
<path d="M30.5986 15.9916C29.8772 16.0246 29.176 15.7528 28.668 15.2396C27.949 14.4648 27.9948 13.2556 28.767 12.5367C28.9169 12.3995 29.0846 12.2852 29.27 12.2014C30.1846 11.7695 31.2617 11.866 32.0822 12.4554C32.5344 12.7628 32.8138 13.2632 32.8418 13.8094C32.9739 14.8865 32.2092 15.8671 31.1321 16.0017C30.9543 16.0246 30.7739 16.0221 30.5961 15.9941L30.5986 15.9916Z" fill="white"/>
<path d="M15.994 24.8422C16.0118 25.6221 15.6942 26.374 15.1201 26.9049C14.3733 27.5883 13.2123 27.5375 12.529 26.7881C12.407 26.656 12.3079 26.5061 12.2292 26.3435C11.7821 25.4239 11.8812 24.3316 12.4832 23.5034C13.1285 22.6143 14.3758 22.4161 15.2649 23.0614C15.3538 23.1249 15.4377 23.1986 15.5139 23.2748C15.8467 23.727 16.0169 24.2782 15.994 24.8396V24.8422Z" fill="white"/>
<path d="M27.4208 13.9212C27.4004 14.5994 27.0245 15.2193 26.4326 15.5546C25.5307 16.1186 24.3901 16.1186 23.4883 15.5546C22.871 15.1482 22.5763 14.3937 22.7541 13.6773C23.0259 12.6256 23.9913 11.899 25.0785 11.9295C26.1785 11.7517 27.215 12.4986 27.3928 13.5985C27.4106 13.7052 27.4182 13.8145 27.4182 13.9212H27.4208Z" fill="white"/>
<path d="M17.3126 41.1589C17.2948 40.1936 18.062 39.3985 19.0273 39.3807C19.1493 39.3807 19.2712 39.3883 19.3906 39.4112C20.361 39.4797 21.2171 40.0666 21.6261 40.9481C22.0936 41.8524 21.7404 42.9651 20.8386 43.4325C20.4982 43.6078 20.1121 43.6739 19.731 43.6205C18.4202 43.5215 17.3863 42.4697 17.3101 41.1564L17.3126 41.1589Z" fill="white"/>
<path d="M43.6256 19.8453C43.6967 20.8513 42.9397 21.7252 41.9337 21.7963C41.6365 21.8166 41.3393 21.7658 41.0649 21.6439C40.0284 21.1765 39.3502 20.1578 39.3171 19.0222C39.3425 18.1534 40.0005 17.437 40.8642 17.3354C42.2309 17.1856 43.4605 18.1738 43.6103 19.5405C43.6205 19.6421 43.6256 19.7437 43.6256 19.8428V19.8453Z" fill="white"/>
<path d="M36.3221 16.1669C35.3796 16.1821 34.4956 15.7147 33.9799 14.9272C33.4261 14.1371 33.6192 13.0473 34.4092 12.4935C34.6404 12.3309 34.9071 12.2293 35.184 12.1912C36.2281 11.9956 37.2925 12.43 37.8997 13.3013C38.2274 13.7383 38.3417 14.2997 38.2045 14.8306C38.0013 15.6893 37.1935 16.2609 36.317 16.1669H36.3221Z" fill="white"/>
<path d="M12.1404 35.6133C12.0185 34.6912 12.6688 33.8427 13.5935 33.7233C13.7485 33.703 13.9085 33.7055 14.0635 33.7284C15.1101 33.8706 15.9459 34.6708 16.1339 35.7124C16.454 36.698 15.9306 37.7599 14.9551 38.1054C13.4436 38.7075 12.1074 37.0385 12.143 35.6159L12.1404 35.6133Z" fill="white"/>
<path d="M16.2811 19.2686C16.4742 21.0164 13.8957 23.13 12.524 21.1384C12.0794 20.3458 12.1378 19.3652 12.6713 18.631C13.1235 17.8562 13.9897 17.4193 14.8814 17.5133C15.7451 17.6276 16.3624 18.4024 16.2786 19.2686H16.2811Z" fill="white"/>
<path d="M21.9081 13.9745C21.9183 14.6452 21.5906 15.2752 21.0342 15.6512C20.4931 16.0983 19.8072 16.3345 19.1036 16.3142C18.217 16.3142 17.498 15.5927 17.498 14.7036C17.498 14.5385 17.5235 14.3734 17.5743 14.2159C17.7648 13.3471 18.4151 12.6485 19.2687 12.3995C20.361 11.9803 21.9945 12.5926 21.9081 13.972V13.9745Z" fill="white"/>
<path d="M48.2797 30.2582C48.2898 30.9111 48.0841 31.5513 47.6954 32.0746C47.2 32.7986 46.2093 32.984 45.4853 32.4887C45.2134 32.3032 45.0051 32.0365 44.8908 31.7266C44.2354 30.2684 45.1017 27.8576 46.9688 28.231C47.8427 28.4927 48.3991 29.3513 48.2797 30.2582Z" fill="white"/>
<path d="M25.1827 44.6265C25.8356 44.6443 26.4605 44.9059 26.9305 45.3607C27.5859 45.9526 27.6367 46.9636 27.0448 47.619C26.8339 47.8528 26.5621 48.0179 26.2573 48.0966C25.2945 48.3989 24.2428 48.1805 23.4781 47.52C23.1809 47.2837 22.9777 46.9484 22.9091 46.5775C22.6296 45.2489 23.9227 44.5681 25.1801 44.629L25.1827 44.6265Z" fill="white"/>
<path d="M48.2186 25.5052C48.3659 26.4045 47.7537 27.253 46.8544 27.4003C46.3489 27.4816 45.8332 27.3241 45.4598 26.9735C44.6443 26.1581 44.3979 24.9336 44.8298 23.8641C45.1981 23.0512 46.1558 22.6905 46.9687 23.0563C47.1491 23.1376 47.3117 23.2519 47.4514 23.3916C47.9747 23.9683 48.2516 24.7279 48.2211 25.5052H48.2186Z" fill="white"/>
<path d="M38.9769 14.0711C38.9235 12.6993 40.5417 12.3233 41.5452 12.9101C42.2997 13.2454 42.8585 13.9085 43.0567 14.7087C43.2929 15.4937 42.8509 16.3218 42.066 16.5606C41.85 16.6267 41.6214 16.6419 41.3978 16.6038C40.0616 16.5022 39.0175 15.4098 38.9769 14.0711Z" fill="white"/>
<path d="M15.0237 43.0718C13.6875 42.9067 12.6663 41.7965 12.6129 40.4501C12.5824 39.6703 13.1921 39.0123 13.9745 38.9818C14.0482 38.9793 14.1219 38.9818 14.1956 38.9894C15.5165 39.1038 16.5555 40.1707 16.6318 41.4968C16.6927 42.3046 16.0881 43.0108 15.2803 43.0718C15.1939 43.0794 15.1101 43.0769 15.0237 43.0693V43.0718Z" fill="white"/>
<path d="M30.2404 7.84972C31.3403 7.84972 32.6867 8.36541 32.6766 9.59749C32.6766 10.1741 32.3336 10.6949 31.8027 10.9261C30.8932 11.3834 29.8085 11.3224 28.9549 10.7686C28.6222 10.5755 28.3757 10.2631 28.264 9.89471C27.8626 8.59405 29.1633 7.8167 30.2378 7.84972H30.2404Z" fill="white"/>
<path d="M11.1879 30.6596C11.0659 33.6039 8.00734 33.1238 7.83459 30.5631C7.77362 30.0245 7.88032 29.4834 8.13944 29.0084C8.53065 28.2768 9.44264 28.0024 10.1743 28.3936C10.38 28.5028 10.5553 28.6603 10.69 28.8509C11.0481 29.3843 11.2234 30.0194 11.1879 30.6596Z" fill="white"/>
<path d="M45.696 17.8867C47.0831 18.0772 48.0509 19.355 47.8604 20.742C47.8528 20.803 47.8401 20.8665 47.8274 20.9275C47.7308 21.466 47.3549 21.9106 46.8392 22.0986C45.2489 22.5101 43.9482 20.3508 44.3064 18.9612C44.4538 18.316 45.0355 17.8664 45.696 17.8867V17.8867Z" fill="white"/>
<path d="M20.511 47.8782C19.4745 47.8833 18.5193 47.3168 18.0291 46.4022C17.6429 45.7392 17.8665 44.8882 18.5295 44.502C18.7251 44.3877 18.9461 44.3217 19.1748 44.3141C20.0817 44.1718 21.0013 44.502 21.611 45.1879C22.2486 45.7494 22.3121 46.7198 21.7532 47.3574C21.4408 47.7131 20.9835 47.9036 20.511 47.8782V47.8782Z" fill="white"/>
<path d="M7.88778 25.4874C7.88778 24.7152 8.20279 23.9759 8.76167 23.4424C9.32309 22.8861 10.23 22.8887 10.7889 23.4526C10.8905 23.5542 10.9769 23.6736 11.0429 23.8006C11.4138 24.5399 11.4138 25.4112 11.0429 26.1505C10.2478 28.2209 7.78363 27.6874 7.89032 25.4874H7.88778Z" fill="white"/>
<path d="M24.9743 11.2233C24.4891 11.2665 24.0013 11.1446 23.5949 10.8727C23.0055 10.4434 22.8277 9.64067 23.1834 9.00304C23.3967 8.63215 23.7295 8.34509 24.1258 8.19012C24.8981 7.80653 25.7999 7.78875 26.59 8.13678C27.3114 8.43654 27.6518 9.2647 27.3521 9.98616C27.2708 10.1792 27.1489 10.3545 26.9914 10.4942C26.4528 11.0125 25.7186 11.2767 24.9743 11.2182V11.2233Z" fill="white"/>
<path d="M14.254 16.8655C11.983 16.6648 12.7527 13.6951 14.4471 13.1184C15.6792 12.5672 16.9621 13.1616 16.7969 14.5258C16.5886 15.7985 15.5395 16.7638 14.254 16.868V16.8655Z" fill="white"/>
<path d="M11.4952 35.9614C11.5384 36.9318 10.8322 37.9886 9.74748 37.6659C8.44427 37.1274 7.77108 35.6794 8.2004 34.3381C8.49 33.6268 9.30037 33.2864 10.0117 33.576C10.1006 33.6115 10.1844 33.6572 10.2632 33.7106C11.0227 34.211 11.4851 35.0544 11.4952 35.9639V35.9614Z" fill="white"/>
<path d="M36.0324 11.4748C35.1992 11.4748 34.4015 11.1369 33.8223 10.54C33.2761 10.0065 33.2685 9.13259 33.802 8.58896C33.957 8.43145 34.1475 8.31206 34.3558 8.24347C35.3973 7.93608 36.5227 8.23585 37.2747 9.02082C37.5135 9.25453 37.6659 9.56192 37.7116 9.8947C37.8437 10.9871 37.0308 11.5104 36.035 11.4748H36.0324Z" fill="white"/>
<path d="M19.5582 11.6679C18.7885 11.7288 18.1153 11.1547 18.0543 10.385C18.0238 10.009 18.1483 9.63559 18.3973 9.35107C19.106 8.51275 20.2136 8.12916 21.2882 8.34763C21.9436 8.48989 22.3602 9.13514 22.2205 9.79055C22.2053 9.8566 22.1875 9.92011 22.1621 9.98108C22.0097 10.4409 21.6997 10.8346 21.2882 11.0912C20.7852 11.457 20.1806 11.6577 19.5582 11.6679V11.6679Z" fill="white"/>
<path d="M11.6425 19.7056C11.6425 20.709 11.0938 21.6312 10.2097 22.1088C9.58228 22.4568 8.78968 22.2307 8.43911 21.6007C8.31972 21.3848 8.26383 21.1409 8.27907 20.8945C8.19524 19.9698 8.57375 19.0629 9.29267 18.4735C9.65595 18.1534 10.1462 18.0188 10.6213 18.1077C11.3123 18.3135 11.7467 18.9943 11.6425 19.7056V19.7056Z" fill="white"/>
<path d="M14.6833 43.6764C15.8773 43.7399 16.8934 44.5655 17.1983 45.7214C17.3812 46.3463 17.0204 47.0018 16.3955 47.1821C16.2278 47.2304 16.0526 47.2405 15.8798 47.2151C14.7544 47.0703 13.8069 46.3082 13.4258 45.2413C13.2023 44.6341 13.5147 43.9609 14.1193 43.7374C14.2997 43.6713 14.4928 43.651 14.6833 43.6764V43.6764Z" fill="white"/>
<path d="M47.1721 16.0881C47.2457 16.6419 46.857 17.1525 46.3032 17.2262C46.2067 17.2389 46.1076 17.2389 46.0111 17.2236C44.6418 17.0204 43.6384 15.829 43.6689 14.4445C43.9128 12.8466 45.7647 13.3445 46.448 14.2006C46.8926 14.7316 47.1466 15.3946 47.1721 16.0881Z" fill="white"/>
<path d="M9.89483 38.4077C10.9084 38.3467 11.8331 39.6474 12.0363 40.5645C12.3234 41.7534 11.4063 42.7492 10.2378 42.1116C9.39437 41.6721 8.81517 40.8515 8.68307 39.9091C8.51795 39.2638 8.90917 38.6084 9.55442 38.4433C9.66619 38.4153 9.78305 38.4026 9.89737 38.4077H9.89483Z" fill="white"/>
<path d="M40.9506 12.0439C39.9624 11.993 39.0656 11.4494 38.5652 10.5933C38.1892 10.0675 38.3112 9.33583 38.837 8.95986C38.9996 8.843 39.1876 8.77187 39.3857 8.74901C40.7474 8.56356 42.0226 9.46539 42.3046 10.8118C42.3707 11.4367 41.9185 11.993 41.2935 12.0591C41.1792 12.0718 41.0624 12.0667 40.9506 12.0439V12.0439Z" fill="white"/>
<path d="M51.7395 30.1973C51.7395 31.1245 51.3381 32.5649 50.1848 32.4938C48.6377 32.2931 48.6047 29.8721 49.3541 28.8433C49.692 28.2691 50.4287 28.0761 51.0028 28.4139C51.1654 28.5105 51.3026 28.6426 51.4067 28.8001C51.6481 29.2243 51.7649 29.7095 51.7395 30.1973V30.1973Z" fill="white"/>
<path d="M51.714 25.4976C51.7267 25.9244 51.6454 26.3461 51.4778 26.7373C51.2644 27.3267 50.614 27.634 50.0247 27.4207C49.8265 27.3495 49.6512 27.225 49.5217 27.0599C48.8333 26.2165 48.6376 25.0708 49.006 24.0471C49.2194 23.4425 49.8799 23.1224 50.487 23.3358C50.6826 23.4043 50.8554 23.5237 50.99 23.6812C51.4625 24.1665 51.7216 24.8219 51.714 25.4976Z" fill="white"/>
<path d="M13.6698 11.1776C13.9111 9.92011 15.0085 9.00812 16.2914 9.00304C17.2339 9.00304 17.681 9.64067 17.4092 10.4282C17.1247 11.236 16.4794 11.8635 15.6614 12.1226C14.7444 12.4986 13.6342 12.3843 13.6698 11.1801V11.1776Z" fill="white"/>
<path d="M10.0624 17.4421C9.41205 17.4167 8.90398 16.8705 8.92938 16.2177C8.93446 16.0729 8.96748 15.9306 9.02337 15.7985C9.2139 14.8332 9.91758 14.0533 10.8575 13.7637C11.9499 13.4131 12.5341 14.4013 12.2369 15.3616C12.0286 16.1846 11.4799 16.8756 10.7254 17.2668C10.5247 17.3862 10.2936 17.4472 10.0624 17.4421V17.4421Z" fill="white"/>
<path d="M51.4526 34.7725C51.4576 35.5676 51.1426 36.3322 50.5787 36.8962C50.345 37.1299 50.035 37.2773 49.7048 37.3077C48.0104 37.3077 48.4829 34.7318 49.1815 33.8579C49.4279 33.4896 49.8318 33.2533 50.2738 33.2203C51.1477 33.1416 51.4881 34.0764 51.4526 34.775V34.7725Z" fill="white"/>
<path d="M51.2951 21.1714C51.3662 22.0453 50.6498 22.848 49.7404 22.439C48.9274 21.9208 48.4168 21.0418 48.3686 20.0816C48.2644 19.2686 48.7877 18.3338 49.715 18.5954C50.7159 19.0553 51.3408 20.0714 51.2951 21.1714Z" fill="white"/>
<path d="M4.70732 30.1338C4.68191 29.7121 4.76574 29.2904 4.95119 28.9119C5.17728 28.3631 5.80475 28.0989 6.35347 28.325C6.58972 28.4216 6.78279 28.5994 6.89965 28.8255C7.45091 29.7298 7.48393 30.8603 6.98602 31.7952C6.79295 32.3058 6.22137 32.5598 5.7133 32.3667C5.52023 32.2931 5.35257 32.161 5.24079 31.9857C4.84196 31.4548 4.65143 30.7968 4.70732 30.1338V30.1338Z" fill="white"/>
<path d="M30.5123 7.30862C29.6385 7.30862 28.4597 7.06474 28.2489 6.06892C28.0837 5.19504 29.0084 4.78604 29.707 4.72253C30.5555 4.57265 31.4243 4.79874 32.0924 5.34238C32.4887 5.72343 32.5014 6.35344 32.1204 6.74974C32.0848 6.78785 32.0467 6.82087 32.0035 6.85389C31.5615 7.14858 31.0407 7.30608 30.5098 7.30862H30.5123Z" fill="white"/>
<path d="M25.8482 4.7581C28.1802 4.7581 27.9973 6.88184 25.8482 7.29084C25.2156 7.44834 24.5475 7.38737 23.9531 7.11556C23.445 6.90725 23.2011 6.3255 23.4094 5.81489C23.4678 5.67263 23.5568 5.54815 23.6736 5.44654C24.2808 4.94101 25.0606 4.69459 25.8482 4.75556V4.7581Z" fill="white"/>
<path d="M4.70728 25.8202C4.66155 25.0378 4.93845 24.2706 5.477 23.6965C5.86314 23.318 6.48299 23.323 6.8615 23.7092C6.92247 23.7701 6.97328 23.8387 7.01646 23.9149C7.54232 24.9133 7.43308 26.1276 6.73702 27.0167C6.49315 27.413 6.01556 27.6036 5.56592 27.4791C4.9105 27.2962 4.70982 26.4223 4.70982 25.8202H4.70728Z" fill="white"/>
<path d="M7.61607 35.6819C7.67704 36.5558 6.97082 37.5415 6.04359 36.9038C5.24083 36.2408 4.83438 35.2119 4.96902 34.178C5.15192 32.885 6.384 32.7808 7.04703 33.8122C7.43571 34.3558 7.63385 35.0138 7.61607 35.6819V35.6819Z" fill="white"/>
<path d="M34.582 5.00197C35.5321 4.94608 36.4441 5.38556 36.9928 6.16291C37.3764 6.96567 36.6879 7.61346 35.9004 7.61346C34.8614 7.69475 33.8504 7.25781 33.2 6.44235C32.6589 5.5075 33.7513 4.93084 34.5794 5.00197H34.582Z" fill="white"/>
<path d="M46.2548 11.9549C46.3082 12.7069 45.5384 13.0219 44.9008 12.8288C43.905 12.5646 43.1251 11.7822 42.866 10.7838C42.6119 9.76261 43.6255 9.38663 44.4461 9.75245C45.4063 10.1005 46.0998 10.9439 46.2548 11.9549Z" fill="white"/>
<path d="M21.4458 5.1671C22.3807 5.1671 23.1403 5.73614 22.5128 6.66845C21.8193 7.50931 20.7371 7.93101 19.6574 7.77859C19.1341 7.73032 18.7505 7.26544 18.7988 6.74212C18.8216 6.49825 18.9385 6.27216 19.1239 6.11211C19.7412 5.49989 20.577 5.15948 21.4484 5.16964L21.4458 5.1671Z" fill="white"/>
<path d="M5.12636 21.3644C5.15176 20.582 5.46169 19.8351 6.00024 19.2686C6.19331 19.04 6.46513 18.8876 6.75981 18.8418C7.59051 18.6767 7.89535 19.6548 7.8166 20.3178C7.76071 21.1866 7.33901 21.9894 6.65565 22.5279C5.71318 23.1401 5.08317 22.2663 5.12636 21.367V21.3644Z" fill="white"/>
<path d="M9.6001 43.8161C9.6001 43.0744 10.0548 42.8203 10.667 42.8559C10.9566 42.8788 11.2335 42.9854 11.4622 43.1607C12.1608 43.6358 12.6485 44.3623 12.8238 45.1879C12.9991 46.0618 12.3615 46.5064 11.5562 46.2092C10.5146 45.8281 9.76522 44.911 9.6001 43.8161Z" fill="white"/>
<path d="M50.5355 16.8655C50.759 17.2922 50.5939 17.8206 50.1671 18.0442C49.7658 18.255 49.2678 18.1229 49.0265 17.7393C48.2923 17.244 47.7894 16.4717 47.6369 15.5978C47.4642 15.1024 47.7258 14.5588 48.2238 14.3861C48.5337 14.2794 48.8766 14.3378 49.1307 14.541C49.9283 15.0618 50.4466 15.9179 50.538 16.8655H50.5355Z" fill="white"/>
<path d="M15.4074 47.6673C16.2914 47.7385 17.1043 48.1779 17.6429 48.8816C17.8512 49.1229 17.9604 49.4354 17.9477 49.7555C17.9477 50.5329 17.0738 50.6294 16.4464 50.4795C15.6538 50.3169 14.9653 49.8292 14.5512 49.1331C14.0711 48.2592 14.3861 47.6394 15.4074 47.6648V47.6673Z" fill="white"/>
<path d="M8.27914 40.3384C8.34011 41.3418 7.58055 41.7534 6.79303 41.0903C6.1554 40.5772 5.72862 39.8456 5.59653 39.0377C5.45681 38.3137 5.89375 37.4906 6.72444 37.7802C7.67454 38.2832 8.27152 39.2663 8.27914 40.3409V40.3384Z" fill="white"/>
<path d="M13.1463 10.8118C13.1438 10.9363 13.1234 11.0607 13.0853 11.1776C12.7932 12.2014 11.9422 12.9685 10.893 13.1515C9.93275 13.3344 9.73968 12.4529 10.0801 11.7365C10.3926 11.0328 10.9464 10.4663 11.645 10.1386C12.275 9.87693 13.1997 9.87693 13.1463 10.8118V10.8118Z" fill="white"/>
<path d="M38.8473 5.64977C39.617 5.69295 40.3486 6.00288 40.9177 6.52365C41.8957 7.45088 41.2225 8.45432 39.9752 8.27142C39.363 8.15202 38.7914 7.87766 38.3163 7.47629C37.4602 6.75228 37.5212 5.56339 38.8498 5.64977H38.8473Z" fill="white"/>
<path d="M8.55093 15.5978C8.51028 16.5733 8.01237 17.4751 7.20454 18.0264C6.12234 18.7072 5.6854 17.686 5.97246 16.7257C6.14775 15.8442 6.74219 15.1024 7.56273 14.7341C8.20036 14.4902 8.60173 14.9602 8.55093 15.5978V15.5978Z" fill="white"/>
<path d="M54.3001 30.0474C54.3458 30.751 54.1223 31.4446 53.6701 31.9857C53.4287 32.2676 53.0045 32.3007 52.7225 32.0593C52.6971 32.0365 52.6717 32.0111 52.6489 31.9857C52.0773 31.0991 52.0112 29.9813 52.4736 29.0338C52.7962 28.264 53.6523 28.0024 54.0638 28.8509C54.2264 29.2294 54.3077 29.6358 54.3001 30.0474V30.0474Z" fill="white"/>
<path d="M54.2571 25.9955C54.214 26.5899 54.153 27.4816 53.4366 27.5934C53.0352 27.6366 52.7812 27.3317 52.5627 27.0243C52.141 26.28 51.9962 25.4087 52.1613 24.5704C52.2477 23.9149 52.9641 23.3739 53.5331 23.8972C54.031 24.4789 54.2902 25.2283 54.2571 25.993V25.9955Z" fill="white"/>
<path d="M15.5826 8.58389C14.3505 8.63723 14.6045 7.44072 15.232 6.83612C15.8036 6.28994 16.5581 5.98002 17.3456 5.96223C17.8511 5.96223 18.3592 6.22389 18.2195 6.79293C17.7647 7.85226 16.7333 8.55086 15.5826 8.58389V8.58389Z" fill="white"/>
<path d="M51.8792 35.2983C51.8792 34.7115 52.0291 34.1348 52.3162 33.6217C53.0859 32.321 54.1249 32.8367 54.0639 34.2339C54.0614 35.1179 53.6803 35.9563 53.0148 36.5405C52.1764 37.0029 51.8081 36.0858 51.8792 35.3009V35.2983Z" fill="white"/>
<path d="M53.8378 21.8979C53.8912 22.4492 53.5762 23.2773 52.8954 22.9801C52.6998 22.9014 52.527 22.7718 52.3974 22.6041C51.8487 21.9106 51.5845 21.0393 51.6557 20.1578C51.615 19.7411 51.9199 19.3677 52.339 19.3271C52.6413 19.2966 52.9335 19.4515 53.0808 19.7208C53.5686 20.3432 53.8353 21.1079 53.8404 21.8954L53.8378 21.8979Z" fill="white"/>
<path d="M46.6384 11.3884C46.5851 11.0557 46.8112 10.7406 47.1439 10.6873C47.2684 10.667 47.398 10.6873 47.5123 10.7432C48.5208 11.1547 49.2626 12.0311 49.5039 13.093C49.5039 13.6951 49.2169 13.9669 48.6301 13.7738C47.5504 13.4461 46.7705 12.5087 46.6384 11.3884Z" fill="white"/>
<path d="M30.1108 2.43367C30.7612 2.39557 31.4014 2.59118 31.9196 2.98493C32.3819 3.48284 31.8662 4.02394 31.3429 4.15604C30.5376 4.39737 29.6739 4.34402 28.9067 4.0087C28.2767 3.77244 27.9896 3.0205 28.6882 2.66231C29.1404 2.48194 29.6256 2.40319 30.1134 2.43621L30.1108 2.43367Z" fill="white"/>
<path d="M2.36497 29.8822C2.34211 29.4174 2.46659 28.9601 2.72316 28.5714C3.20329 27.9871 3.84092 28.4241 4.03399 29.0261C4.29819 29.7578 4.33883 30.5529 4.1483 31.3074C4.04415 31.8409 3.52846 32.382 3.02039 31.9095C2.57074 31.3328 2.33703 30.6139 2.36497 29.8822V29.8822Z" fill="white"/>
<path d="M11.3453 46.6537C11.513 46.641 11.6806 46.669 11.8356 46.7325C12.6536 46.9967 13.3217 47.5937 13.6799 48.3735C13.7688 48.5539 13.8171 48.7495 13.8272 48.9502C13.8272 49.2652 13.784 49.3338 13.4767 49.4405C13.276 49.5065 13.0575 49.5065 12.8568 49.4405C12.3157 49.3033 11.8331 48.9985 11.4774 48.5666C11.0227 48.1221 10.037 46.6436 11.3453 46.6537V46.6537Z" fill="white"/>
<path d="M2.44391 25.9955C2.40326 25.2791 2.64206 24.5754 3.10694 24.0293C4.05958 23.3205 4.44317 24.9032 4.34664 25.5763C4.32632 26.2114 4.10276 26.8237 3.70901 27.3241C3.52356 27.5781 3.16791 27.634 2.91641 27.4486C2.8402 27.3927 2.78178 27.3216 2.74113 27.2377C2.53028 26.8592 2.42613 26.4299 2.44391 25.998V25.9955Z" fill="white"/>
<path d="M25.358 4.34656C24.5882 4.42531 23.2266 3.9528 24.1005 3.04589C24.3164 2.83758 24.5857 2.69024 24.8778 2.62673C25.4926 2.46415 26.1353 2.43112 26.7653 2.5302C27.9009 2.70548 27.8323 3.7013 26.8441 4.06712C26.3741 4.26272 25.8686 4.35926 25.358 4.34656Z" fill="white"/>
<path d="M7.12564 41.9185C8.18243 41.9185 9.67616 43.9711 9.10966 44.9237C8.97756 45.1422 8.89119 45.1854 8.64731 45.1244C8.2815 45.0431 7.94109 44.8755 7.65149 44.6341C7.07737 44.1616 6.69632 43.4986 6.57692 42.7644C6.53881 42.6069 6.53881 42.4418 6.57692 42.2843C6.70902 41.9795 6.81317 41.9083 7.12818 41.9185H7.12564Z" fill="white"/>
<path d="M44.4361 9.24692C43.359 9.09196 42.4267 8.41622 41.9465 7.43818C41.6849 6.66083 42.4699 6.44236 43.0745 6.66083C43.8442 6.89963 44.5072 7.395 44.9518 8.06819C45.3176 8.60929 45.249 9.2647 44.4361 9.24692V9.24692Z" fill="white"/>
<path d="M2.68018 33.9621C2.6878 33.6826 2.7386 33.4057 2.82752 33.1416C2.90881 32.8494 3.21111 32.6767 3.50325 32.758C3.60233 32.7859 3.69124 32.8392 3.76237 32.9155C3.84366 32.9764 3.91479 33.0501 3.97322 33.1339C4.47875 33.8528 4.7023 34.7318 4.60323 35.6057C4.46351 36.566 3.72934 36.7336 3.23143 35.9029C2.8834 35.3161 2.69288 34.648 2.68018 33.9646V33.9621Z" fill="white"/>
<path d="M51.1121 39.8583C51.1629 39.0174 51.5134 38.2197 52.1003 37.6126C52.306 37.389 52.6007 37.2646 52.903 37.2722C53.0427 37.262 53.1748 37.3484 53.218 37.483C53.3323 37.7599 53.3755 38.0597 53.34 38.3569C53.2688 38.9895 53.0351 39.5915 52.6591 40.1047C52.4864 40.3638 52.24 40.567 51.9504 40.689C51.3127 40.9328 51.1197 40.3917 51.1121 39.8583V39.8583Z" fill="white"/>
<path d="M34.0409 2.73089C34.615 2.74106 35.1815 2.8757 35.6997 3.12465C35.9309 3.22118 36.1341 3.37107 36.2942 3.56159C36.7311 4.14588 36.1799 4.61838 35.5854 4.62854C34.6048 4.70475 33.6344 4.38975 32.885 3.75466C32.6869 3.53111 32.7072 3.18816 32.9308 2.99001C32.9866 2.94174 33.0501 2.90364 33.1213 2.88078C33.4134 2.769 33.7259 2.71819 34.0383 2.73344L34.0409 2.73089Z" fill="white"/>
<path d="M4.82918 20.6735C4.82918 21.6032 4.44305 22.4924 3.76223 23.1274C3.27194 23.4323 2.88835 22.9166 2.88835 22.4542C2.77911 21.4457 3.13985 20.4448 3.86639 19.7386C4.53958 19.2763 4.87999 20.0536 4.82664 20.6735H4.82918Z" fill="white"/>
<path d="M22.1773 2.88839C22.7361 2.82742 23.4449 3.07129 23.1197 3.76227C23.0486 3.89437 22.947 4.00869 22.8225 4.09506C22.0629 4.67934 21.0951 4.92576 20.1501 4.77587C19.609 4.69712 19.3651 4.25256 19.7665 3.81562C20.4041 3.18053 21.278 2.8452 22.1773 2.88839V2.88839Z" fill="white"/>
<path d="M6.93509 13.5732C7.09514 12.6713 7.61591 11.8737 8.37548 11.363C8.60157 11.203 8.87593 11.1217 9.15283 11.1369C9.5542 11.1369 9.65074 11.5739 9.57961 11.8889C9.38146 12.8415 8.76161 13.6544 7.89281 14.099C7.38728 14.353 6.90461 14.2463 6.93255 13.5757L6.93509 13.5732Z" fill="white"/>
<path d="M50.8148 16.1668C50.7361 15.4327 51.3661 15.0847 51.9072 15.608C52.621 16.2431 53.0452 17.1423 53.0783 18.0975C53.0783 18.7885 52.4838 18.9714 52.0037 18.5421C51.3178 17.9324 50.891 17.0814 50.8148 16.1668V16.1668Z" fill="white"/>
<path d="M13.6951 6.96821C14.4039 6.96821 14.254 7.72015 13.9746 8.11137C13.4868 8.8811 12.7095 9.4222 11.8178 9.61272C11.5536 9.7626 11.2183 9.67115 11.0684 9.40695C10.9439 9.18848 10.9846 8.91412 11.1649 8.73884C11.6577 7.75826 12.6104 7.09269 13.6977 6.96567L13.6951 6.96821Z" fill="white"/>
<path d="M5.35261 39.6576C5.35261 40.5315 4.84707 40.6788 4.26025 40.059C3.70645 39.4264 3.37875 38.6262 3.3254 37.7879C3.31778 37.638 3.34064 37.4906 3.39653 37.3509C3.57943 36.6955 4.27041 37.0969 4.54985 37.4652C5.03252 38.0978 5.3145 38.8624 5.35261 39.6576Z" fill="white"/>
<path d="M39.5711 5.37795C38.7227 5.2992 37.9224 4.95371 37.2823 4.38975C36.4694 3.51587 37.4931 3.21865 38.2603 3.41934C38.8573 3.55144 39.4213 3.80293 39.9192 4.1535C40.0843 4.26528 40.2265 4.40754 40.3383 4.57266C40.7321 5.15694 40.0513 5.38558 39.5686 5.37541L39.5711 5.37795Z" fill="white"/>
<path d="M5.6675 16.5149C5.59382 17.3583 5.21277 18.1458 4.59292 18.725C3.89432 19.355 3.51835 18.9079 3.65045 18.095C3.7546 17.4269 4.02388 16.7969 4.43542 16.2609C4.92571 15.6054 5.7183 15.4124 5.6675 16.5149V16.5149Z" fill="white"/>
<path d="M18.3516 3.64796C18.6235 3.64796 18.9029 3.64796 19.0325 3.902C19.1011 4.09761 19.0502 4.31608 18.9004 4.46088C18.2323 5.21029 17.2847 5.65231 16.2787 5.68279C15.7275 5.68279 15.509 5.22045 15.8951 4.80891C16.5429 4.13317 17.4168 3.71909 18.3491 3.64796H18.3516Z" fill="white"/>
<path d="M54.6482 30.337C54.6228 29.8746 54.6838 29.4123 54.8311 28.9754C55.1182 28.0329 55.8193 28.198 55.9845 29.0973C56.1216 29.8264 56.0708 30.5783 55.8371 31.282C55.7863 31.4217 55.7177 31.5513 55.6364 31.6758C55.5374 31.8866 55.2884 31.9755 55.0801 31.879C54.9912 31.8383 54.9201 31.7647 54.8769 31.6758C54.666 31.2642 54.5873 30.7968 54.6508 30.3395L54.6482 30.337Z" fill="white"/>
<path d="M55.9945 26.2038C55.9945 28.353 54.7879 27.9516 54.5872 26.1505C54.4932 25.5967 54.5364 25.0251 54.7091 24.4916C54.8844 24.0013 55.3391 24.1156 55.583 24.4129C55.8853 24.959 56.0276 25.5789 55.9945 26.2038Z" fill="white"/>
<path d="M45.922 7.83193C46.1964 7.84718 46.4631 7.92847 46.6994 8.06819C47.4589 8.44162 48.0153 9.1326 48.2185 9.95567C48.2896 10.2885 48.2185 10.3571 47.9035 10.3825C47.652 10.3952 47.4031 10.3342 47.1871 10.2072C46.58 9.88454 46.0719 9.40188 45.7188 8.80997C45.6172 8.65501 45.5511 8.47973 45.5257 8.29428C45.4546 7.91069 45.5333 7.82177 45.9195 7.83193H45.922Z" fill="white"/>
<path d="M10.3596 47.8782C10.3596 48.1932 10.3596 48.2287 10.0191 48.2364C9.75495 48.244 9.49837 48.1576 9.29515 47.9925C8.79469 47.619 8.36283 47.1618 8.01989 46.6385C7.85222 46.3997 7.77601 46.1075 7.80141 45.8179C7.80141 45.5461 7.88017 45.5029 8.1596 45.5385C9.30531 45.79 10.1792 46.7198 10.3621 47.8807L10.3596 47.8782Z" fill="white"/>
<path d="M51.9758 14.4546C51.9758 14.7773 51.9758 15.0313 51.582 14.9272C51.3483 14.8789 51.1324 14.7646 50.9621 14.5944C50.5176 14.1549 50.1416 13.6468 49.852 13.093C49.6589 12.7424 49.4938 11.8787 50.1314 11.9651C50.322 11.9905 50.4998 12.0693 50.6471 12.1912C51.3661 12.745 51.8437 13.5554 51.9758 14.4546V14.4546Z" fill="white"/>
<path d="M14.5079 51.9656C13.5527 51.8793 12.689 51.3661 12.1581 50.5684C12.0107 50.35 11.8177 50.0883 12.0006 49.852C12.1835 49.6158 12.4553 49.7123 12.6992 49.7733C13.4765 49.974 14.165 50.4211 14.6654 51.0486C14.795 51.201 14.8839 51.3839 14.9195 51.582C14.9982 51.9326 14.7975 51.9758 14.5079 51.9656V51.9656Z" fill="white"/>
<path d="M55.6186 22.6473C55.6186 23.2773 55.2858 23.9048 54.7447 23.1808C54.2747 22.5457 54.0156 21.7785 54.0029 20.9885C54.0029 20.6303 54.1858 19.8707 54.666 20.2111C55.2858 20.8691 55.6288 21.7429 55.6186 22.6473V22.6473Z" fill="white"/>
<path d="M41.3977 4.32116C42.4139 4.42786 43.3157 5.01722 43.8263 5.90127C43.9914 6.20611 43.9483 6.27724 43.6078 6.36361C43.3741 6.40934 43.1353 6.39664 42.9093 6.32043C42.1446 6.08925 41.4739 5.61675 40.9964 4.97403C40.6915 4.53709 40.9176 4.26527 41.3977 4.31862V4.32116Z" fill="white"/>
<path d="M4.36694 41.3266C4.36694 40.6813 4.80389 40.8363 5.1697 41.1335C5.78954 41.6822 6.20362 42.424 6.34842 43.2395C6.34842 43.5189 6.34842 44.1133 5.94705 43.9381C4.99695 43.4071 4.39743 42.4138 4.36694 41.3266V41.3266Z" fill="white"/>
<path d="M8.54072 10.7508C8.27906 10.7508 8.22571 10.6975 8.22571 10.4892C8.21809 10.3037 8.26128 10.1208 8.34765 9.95568C8.72108 9.27232 9.27996 8.7109 9.96332 8.34001C10.1056 8.26126 10.2631 8.21553 10.4257 8.20029C10.7407 8.20029 10.8448 8.26126 10.8016 8.57626C10.5044 9.66353 9.63561 10.4993 8.53818 10.7508H8.54072Z" fill="white"/>
<path d="M30.2939 2.15422C29.8112 2.15676 29.3311 2.08309 28.8688 1.93575C28.724 1.89765 28.5919 1.82906 28.475 1.73506C28.1524 1.448 28.4039 1.07203 28.7722 1.0263C29.7198 0.779889 30.7258 0.886584 31.6022 1.32353C32.3541 2.0145 30.6496 2.17963 30.2914 2.15422H30.2939Z" fill="white"/>
<path d="M26.3638 0.975499C26.783 0.975499 27.6645 0.975499 27.7178 1.41244C27.7712 1.84938 27.3596 1.857 27.1234 1.95354C26.3943 2.22282 25.6068 2.28886 24.8421 2.1466C24.5373 2.1466 24.0114 1.85954 24.3366 1.50897C24.9437 1.133 25.65 0.947555 26.3638 0.975499V0.975499Z" fill="white"/>
<path d="M2.20006 25.6703C2.21276 26.1835 2.11623 26.6916 1.92062 27.1641C1.81647 27.4613 1.45827 27.9668 1.17883 27.5299C1.095 27.3902 1.03403 27.2352 1.00355 27.0752C0.871451 26.3639 0.924799 25.6297 1.16105 24.9438C1.21948 24.7279 1.34142 24.5323 1.51162 24.3849C1.73771 24.2096 1.84441 24.2274 1.98413 24.4814C2.16195 24.8523 2.23562 25.2613 2.2026 25.6703H2.20006Z" fill="white"/>
<path d="M2.13898 30.2405C2.13898 30.591 2.05261 31.8053 1.5801 31.7774C1.35401 31.7774 1.24731 31.5843 1.16856 31.4014C0.886581 30.6266 0.828152 29.7883 1.00344 28.9804C1.07457 28.7442 1.11775 28.3682 1.4226 28.3504C1.57756 28.3504 1.71728 28.4444 1.78079 28.5867C2.03228 29.0998 2.15676 29.6663 2.13898 30.2379V30.2405Z" fill="white"/>
<path d="M6.76752 12.8568C6.76752 13.5808 5.76408 15.1532 5.01976 15.2853C4.81907 15.2853 4.74794 15.2853 4.70475 15.0923C4.66157 14.9322 4.66157 14.762 4.70475 14.602C4.93847 13.8221 5.39065 13.126 6.00542 12.5926C6.44998 12.2776 6.81833 12.1988 6.76498 12.8542L6.76752 12.8568Z" fill="white"/>
<path d="M12.8212 6.8107C12.1582 6.8107 12.3767 6.29501 12.6459 5.93682C13.1058 5.44399 13.6672 5.05277 14.287 4.79366C14.5182 4.69458 14.7722 4.65648 15.0212 4.6895C15.3184 4.75047 15.354 4.8216 15.2574 5.10104C15.2092 5.256 15.1253 5.39572 15.0136 5.51258C14.5334 6.04097 13.9339 6.44743 13.2658 6.70147C13.1261 6.76752 12.9737 6.80562 12.8212 6.81578V6.8107Z" fill="white"/>
<path d="M33.3347 1.14063C33.9342 1.14571 34.5286 1.26765 35.0824 1.49882C35.2907 1.58266 35.4762 1.71475 35.6235 1.88242C35.7709 2.08311 35.7556 2.17964 35.5448 2.3092C34.8284 2.71057 33.4744 2.3092 32.7834 1.95863C32.6005 1.85447 32.3465 1.74778 32.4074 1.46072C32.4684 1.17366 32.7301 1.21684 32.9307 1.17366C33.0628 1.15079 33.1975 1.13809 33.3321 1.13809L33.3347 1.14063Z" fill="white"/>
<path d="M1.161 33.3244C1.15084 33.0501 1.21181 32.7757 1.33629 32.5293C1.43282 32.354 1.50141 32.3362 1.66908 32.4429C1.82912 32.542 1.95614 32.6843 2.03489 32.8545C2.43118 33.6115 2.56582 34.4778 2.41848 35.3186C2.34735 35.6768 2.13904 35.8699 1.8596 35.5371C1.41504 34.8842 1.17371 34.117 1.161 33.327V33.3244Z" fill="white"/>
<path d="M1.36154 22.6473C1.37425 22.0376 1.53429 21.4381 1.82389 20.8995C1.90772 20.7039 2.05252 20.5388 2.23543 20.427C2.62918 20.173 2.70793 20.8538 2.70793 21.118C2.71301 21.8141 2.54535 22.5025 2.21764 23.1173C2.12365 23.2926 1.99663 23.4475 1.84167 23.572C1.6486 23.7193 1.56985 23.7041 1.4657 23.4933C1.36916 23.2214 1.3336 22.9318 1.36154 22.6448V22.6473Z" fill="white"/>
<path d="M54.8768 18.9714C54.8768 19.2686 54.8768 19.5125 54.6329 19.6014C54.3891 19.6903 54.257 19.5049 54.135 19.3474C53.7082 18.7428 53.411 18.0543 53.2611 17.3303C53.157 16.8502 53.2611 16.116 53.8734 16.6749C54.4195 17.3303 54.7676 18.128 54.8768 18.9714V18.9714Z" fill="white"/>
<path d="M20.3611 2.41589C20.4373 2.21774 20.5821 2.05262 20.7726 1.95355C21.489 1.46072 22.3705 1.26765 23.2266 1.41245C23.3739 1.41245 23.5924 1.45564 23.6381 1.61314C23.7093 2.30412 21.7862 2.71311 21.2451 2.70549C20.92 2.76646 20.5897 2.65723 20.3636 2.41843L20.3611 2.41589Z" fill="white"/>
<path d="M36.9597 1.78841C37.7345 1.8443 38.4788 2.11612 39.1089 2.57339C39.2664 2.6877 39.4493 2.8452 39.3705 3.06367C39.2918 3.28215 39.0479 3.27452 38.8548 3.26436C38.0292 3.20085 37.2392 2.91379 36.566 2.43367C36.4262 2.33713 36.2433 2.22282 36.3043 2.02213C36.3653 1.82144 36.7311 1.78587 36.9597 1.78587V1.78841Z" fill="white"/>
<path d="M3.23893 38.7049C3.23893 38.931 3.23893 39.246 3.05602 39.3248C2.87312 39.4035 2.68005 39.1495 2.54033 38.9742C2.06782 38.3569 1.80108 37.605 1.78076 36.8251C1.78076 36.6244 1.78076 36.3449 1.97383 36.2662C2.1669 36.1874 2.31424 36.4237 2.42855 36.571C2.90106 37.1883 3.18304 37.9276 3.24147 38.7024L3.23893 38.7049Z" fill="white"/>
<path d="M11.2767 50.6903C11.0684 50.6522 10.8754 50.5659 10.7077 50.4363C10.2606 50.1188 9.84905 49.753 9.48577 49.344C9.33589 49.1763 9.22158 48.9807 9.15299 48.7673C8.9777 48.277 9.4934 48.4523 9.76521 48.5564C10.474 48.8587 11.0811 49.3592 11.513 49.9968C11.5917 50.1086 11.6502 50.2331 11.6883 50.3626C11.6959 50.6421 11.6959 50.6954 11.2767 50.6853V50.6903Z" fill="white"/>
<path d="M7.65147 46.6181C7.65147 46.89 7.58034 46.9408 7.35425 46.8798C7.17643 46.8265 7.0113 46.735 6.87412 46.608C6.38891 46.1761 5.99008 45.6579 5.6954 45.0787C5.60394 44.8856 5.54806 44.6798 5.53027 44.4665C5.53027 44.0905 6.0104 44.3013 6.1679 44.4665C6.75727 44.9364 7.23231 45.5334 7.55748 46.2142C7.60575 46.3438 7.63877 46.4784 7.65401 46.6156L7.65147 46.6181Z" fill="white"/>
<path d="M50.7184 11.457C50.7184 11.9016 50.1062 11.5967 49.9157 11.457C49.2247 10.9769 48.7192 10.2732 48.4829 9.46538C48.4829 9.12497 48.5363 9.064 48.8589 9.20372C49.0443 9.27993 49.2145 9.38663 49.3644 9.51873C49.7836 9.91248 50.1621 10.3494 50.4923 10.8194C50.627 11.0074 50.7057 11.2284 50.7184 11.457Z" fill="white"/>
<path d="M46.6386 7.61346C45.7876 7.44326 45.0331 6.96313 44.5149 6.26707C44.4132 6.15276 44.3345 6.01812 44.2888 5.87332C44.0957 5.32206 44.7435 5.55069 45.0229 5.67263C45.6504 5.98763 46.2093 6.42203 46.6742 6.94789C46.7707 7.05966 46.8469 7.19176 46.8926 7.33148C46.9612 7.56774 46.9282 7.61854 46.6386 7.61092V7.61346Z" fill="white"/>
<path d="M17.3379 3.56922C17.1626 3.56922 16.901 3.56922 16.84 3.41171C16.779 3.25421 16.9721 3.13228 17.0839 3.01796C17.5665 2.56069 18.1762 2.25585 18.8316 2.14408C19.0603 2.08565 19.294 2.05516 19.5302 2.0577C19.6446 2.0577 19.7665 2.0577 19.8351 2.15424C19.9037 2.25077 19.7919 2.38033 19.7309 2.48702C19.0781 3.10941 18.2347 3.49047 17.3379 3.56922V3.56922Z" fill="white"/>
<path d="M2.08567 19.2762C2.14155 18.4278 2.48704 17.6225 3.06371 16.995C3.15008 16.9086 3.24661 16.7765 3.36855 16.8121C3.49049 16.8477 3.51589 17.0306 3.51589 17.1627C3.50827 18.0442 3.20088 18.8977 2.64201 19.5836C2.52769 19.7233 2.37019 19.9063 2.17966 19.8275C1.98659 19.7488 2.09329 19.5227 2.06534 19.355L2.08313 19.2762H2.08567Z" fill="white"/>
<path d="M6.01803 11.9549C6.01803 11.7771 6.05613 11.5993 6.13234 11.4393C6.43973 10.7838 6.90969 10.2148 7.49398 9.78802C7.65148 9.66608 7.87757 9.50858 8.02745 9.62289C8.17479 9.73721 8.07064 9.99887 8.02745 10.1742C7.70737 10.9083 7.18405 11.5383 6.51594 11.9829C6.35082 12.0693 5.98246 12.2699 6.01803 11.9575V11.9549Z" fill="white"/>
<path d="M53.7235 16.0881C53.5076 16.0398 53.312 15.9204 53.1723 15.7477C52.6159 15.1507 52.2323 14.414 52.0621 13.6163C52.0621 13.502 51.991 13.3547 52.0621 13.2658C52.1333 13.1794 52.2273 13.2658 52.306 13.2658C52.3822 13.3064 52.4508 13.3572 52.5169 13.4131C53.1164 13.9847 53.5432 14.7138 53.7489 15.5191C53.8226 15.7045 53.8124 15.9103 53.7235 16.0881V16.0881Z" fill="white"/>
<path d="M9.57212 8.05041C9.57466 7.8929 9.62801 7.74048 9.71946 7.61347C10.1589 6.93773 10.7915 6.41188 11.5358 6.10195C11.7009 6.04098 11.9372 5.90888 12.0515 6.03082C12.1658 6.15276 12.0515 6.39663 11.9194 6.57192C11.5104 7.11047 10.9947 7.55758 10.4079 7.89036C10.1691 8.07581 9.85664 8.13424 9.56958 8.04787L9.57212 8.05041Z" fill="white"/>
<path d="M56.7797 27.7687C56.5993 27.6645 56.4647 27.4969 56.4037 27.2962C56.1293 26.5442 56.0684 25.7313 56.2284 24.9463C56.2284 24.8142 56.2284 24.6059 56.4291 24.5805C56.6298 24.5551 56.673 24.7558 56.7517 24.8955C57.1582 25.8075 57.1658 26.8491 56.7771 27.7687H56.7797Z" fill="white"/>
<path d="M56.876 32.9993C56.8709 33.6877 56.6957 34.366 56.3705 34.9732C56.2841 35.1129 56.1088 35.4279 55.9691 35.1484C55.898 35.029 55.8624 34.8944 55.865 34.7547C55.8396 33.9443 56.0148 33.1416 56.3705 32.4125C56.4315 32.2982 56.4747 32.1152 56.6423 32.1508C56.8074 32.1864 56.8176 32.3439 56.843 32.4836C56.876 32.6538 56.8887 32.8265 56.8786 32.9993H56.876Z" fill="white"/>
<path d="M4.22708 42.706C3.30747 42.0963 2.75113 41.0675 2.74097 39.9624C2.74097 39.8049 2.8629 39.8151 2.96706 39.9091C3.81554 40.5823 4.28297 41.6238 4.22454 42.7035L4.22708 42.706Z" fill="white"/>
<path d="M42.7086 4.217C42.4774 4.33894 42.198 4.33894 41.9668 4.217C41.3673 3.99853 40.7983 3.70385 40.2724 3.34312C40.1352 3.25674 40.0184 3.13989 39.932 3.00271C39.7999 2.79186 39.8355 2.73089 40.0971 2.71565C40.1962 2.70803 40.2953 2.70803 40.3943 2.71565C41.1691 2.85029 41.8855 3.22118 42.4469 3.77244C42.5765 3.89183 42.668 4.04679 42.7086 4.217V4.217Z" fill="white"/>
<path d="M56.6855 23.1122C56.6855 23.3307 56.6855 24.1436 56.3985 23.9073C56.2867 23.8286 56.1978 23.7193 56.1445 23.5923C55.8167 22.848 55.6592 22.0376 55.6821 21.2247C55.6821 21.0926 55.6821 20.9199 55.8574 20.8919C56.0327 20.864 56.0149 20.9707 56.0581 21.0393C56.4417 21.6642 56.6576 22.378 56.6881 23.1097L56.6855 23.1122Z" fill="white"/>
<path d="M16.403 3.14243C16.2099 3.83341 14.5689 4.76826 13.7026 4.67173C13.6975 4.48374 13.7864 4.30846 13.9389 4.19922C14.5079 3.73434 15.1557 3.37615 15.8517 3.14243C16.0296 3.07638 16.2252 3.07638 16.403 3.14243V3.14243Z" fill="white"/>
<path d="M3.15269 16.3929C3.15269 15.293 3.72681 14.2743 4.6642 13.7027C4.71501 13.9466 4.69215 14.1981 4.59307 14.4267C4.37206 14.9932 4.07738 15.5267 3.71919 16.017C3.60741 16.2329 3.39402 16.3752 3.15015 16.3929H3.15269Z" fill="white"/>
<path d="M28.3809 0.327711C28.922 -0.1702 30.2252 0.0127059 30.8958 0.134643C31.1194 0.162587 31.3226 0.274363 31.4649 0.449648C30.4767 0.904372 29.331 0.858646 28.3809 0.327711Z" fill="white"/>
<path d="M0.426794 31.4547C0.208323 31.1651 0.0787647 30.8196 0.0508207 30.4589C-0.0355515 29.8924 -0.0126883 29.3132 0.121951 28.7543C0.121951 28.6146 0.25405 28.1954 0.426794 28.4571C0.769743 29.2497 0.853574 30.1312 0.663047 30.9721C0.645265 31.155 0.561433 31.3252 0.426794 31.4522V31.4547Z" fill="white"/>
<path d="M0.548613 24.7279C0.990636 25.7059 0.901723 26.844 0.312359 27.7407C-0.1068 26.7576 -0.0204277 25.6322 0.548613 24.7279Z" fill="white"/>
<path d="M24.6846 0.591903C25.5889 -1.23806e-06 26.727 -0.106696 27.7254 0.302302C27.2453 0.85356 25.594 1.01868 24.6846 0.589362V0.591903Z" fill="white"/>
<path d="M0.960192 35.0544C0.782367 34.9401 0.652808 34.7674 0.59438 34.5642C0.332723 33.8884 0.218407 33.1644 0.261593 32.4404C0.261593 32.2931 0.261593 32.0898 0.426716 32.0568C0.59184 32.0238 0.602001 32.2321 0.66297 32.354C1.06435 33.1949 1.17104 34.145 0.960192 35.0544Z" fill="white"/>
<path d="M6.94287 47.0297C7.91583 47.4387 8.66778 48.244 9.01326 49.2398C8.32229 49.2576 6.98606 47.8502 6.94287 47.0297Z" fill="white"/>
<path d="M35.0469 0.939945C34.3661 1.34132 32.9156 0.983131 32.2601 0.607158C32.1814 0.607158 32.0772 0.528406 32.095 0.424252C32.1128 0.320097 32.2271 0.284532 32.3211 0.284532C33.2255 0.187998 34.14 0.368364 34.9428 0.800225C34.9961 0.830709 35.0342 0.881516 35.0469 0.939945Z" fill="white"/>
<path d="M49.3211 9.00304C48.3024 8.67533 47.4743 7.92338 47.05 6.94026C47.5734 6.73958 48.526 7.90052 48.9096 8.23331C49.1255 8.43908 49.2703 8.70835 49.3211 9.00304Z" fill="white"/>
<path d="M0.513282 24.1156C0.289731 23.0766 0.536146 21.9944 1.18648 21.1536C1.42527 22.1926 1.17886 23.2824 0.513282 24.1156Z" fill="white"/>
<path d="M54.849 17.5285C55.6416 18.2728 56.043 19.3448 55.9312 20.4296C55.1843 19.6548 54.7931 18.603 54.849 17.5285Z" fill="white"/>
<path d="M52.5092 12.9965C51.9402 12.9965 50.7615 11.2487 50.7615 10.6898C50.7615 10.5755 50.8224 10.4968 50.919 10.5755C51.7497 11.1395 52.3213 12.0108 52.5092 12.9965Z" fill="white"/>
<path d="M24.1359 0.563968C23.2722 1.16095 22.2128 1.40229 21.1738 1.24478C21.2119 1.07712 21.3339 0.942482 21.4965 0.886594C22.2433 0.536024 23.0664 0.381062 23.8895 0.442031C23.9835 0.452192 24.0698 0.495378 24.1333 0.563968H24.1359Z" fill="white"/>
<path d="M12.9787 52.5423C12.7348 52.5448 12.4935 52.4762 12.2877 52.3416C11.9727 52.1409 10.3926 51.0917 10.5399 50.7259C10.5831 50.6954 10.6365 50.6954 10.6797 50.7259C11.6221 51.0155 12.43 51.6354 12.9507 52.4737C12.9609 52.4966 12.9711 52.5194 12.9762 52.5423H12.9787Z" fill="white"/>
<path d="M43.0032 3.90962C44.032 4.09253 44.944 4.68189 45.5359 5.54307C44.4867 5.40843 43.557 4.80891 43.0032 3.90962Z" fill="white"/>
<path d="M3.89429 42.9499C4.76817 43.5367 5.37278 44.4487 5.57093 45.4826C4.66656 44.9263 4.05179 43.9991 3.89429 42.9499Z" fill="white"/>
<path d="M35.5776 0.896751C36.5989 0.790056 37.6175 1.10506 38.4 1.77063C37.3788 1.89257 36.3524 1.57503 35.5776 0.896751Z" fill="white"/>
<path d="M1.78834 38.4001C1.09482 37.6507 0.759497 36.6371 0.861111 35.6209C1.54955 36.3729 1.88488 37.384 1.78834 38.4001Z" fill="white"/>
<path d="M7.40513 9.51111C7.7684 8.61437 8.43905 7.87512 9.30024 7.4331C9.36121 7.38991 9.42217 7.31878 9.4933 7.4331C9.56443 7.54742 9.4933 7.54742 9.4933 7.60838C9.41709 7.81923 9.2977 8.0123 9.14273 8.17742C8.82011 8.5407 8.47462 8.88365 8.11135 9.20881C7.9132 9.3841 7.66679 9.49079 7.40259 9.51365L7.40513 9.51111Z" fill="white"/>
<path d="M2.08569 17.94C2.15682 18.9155 1.84181 19.8809 1.2118 20.6303C1.13051 19.6522 1.44552 18.6844 2.08569 17.94Z" fill="white"/>
<path d="M12.7526 4.48628C12.9787 4.48628 13.1641 4.32116 13.408 4.33894C12.8847 5.19504 12.0311 5.79711 11.0505 6.00796C11.2868 5.39573 11.9244 5.06548 12.4401 4.70729C12.5544 4.63616 12.6942 4.61076 12.7627 4.4812L12.7551 4.48882L12.7526 4.48628Z" fill="white"/>
<path d="M17.8816 2.11867C18.6437 1.46072 19.6243 1.10761 20.6328 1.13047C19.8732 1.7935 18.8901 2.14661 17.8816 2.11867Z" fill="white"/>
<path d="M4.44565 12.8644C4.55997 12.811 4.56759 12.6891 4.62094 12.5926C4.92832 12.0337 5.33224 11.5383 5.81745 11.1242C5.8708 11.0709 5.9216 11.0099 6.00036 11.0201C5.79205 12.0032 5.1976 12.8593 4.34912 13.3953C4.34912 13.2023 4.48122 13.0448 4.45328 12.8542L4.44565 12.8618V12.8644Z" fill="white"/>
<path d="M55.0165 17.1373C54.3103 16.4666 53.8606 15.5699 53.7412 14.6045C54.4805 15.2498 54.9377 16.1592 55.0165 17.1373Z" fill="white"/>
<path d="M38.8625 1.69951C39.8126 1.77318 40.7119 2.16439 41.4131 2.80965C40.4655 2.72327 39.5713 2.3346 38.8625 1.69951Z" fill="white"/>
<path d="M2.85543 41.4562C2.18224 40.7779 1.76816 39.8837 1.68433 38.931C2.37276 39.5991 2.78938 40.4984 2.85543 41.4562Z" fill="white"/>
<path d="M3.22121 14.9881C3.09419 15.9103 2.68265 16.7689 2.04248 17.4421C2.1568 16.5174 2.57088 15.6537 3.22121 14.9881Z" fill="white"/>
<path d="M8.44678 49.3363C9.26985 49.6971 9.95829 50.3093 10.413 51.0841C9.58232 50.7335 8.89134 50.1188 8.44678 49.3363Z" fill="white"/>
<path d="M17.4523 2.01451C16.7613 2.6369 15.9128 3.0586 14.9983 3.2288C15.6588 2.56069 16.5225 2.13391 17.4523 2.01451V2.01451Z" fill="white"/>
<path d="M51.1553 10.4892C50.3551 9.96076 49.6921 9.252 49.217 8.41876C50.0884 8.8557 50.7768 9.58987 51.1553 10.4892Z" fill="white"/>
<path d="M7.00387 47.7816C6.18079 47.3193 5.56095 46.5699 5.2561 45.6757C6.01059 46.2168 6.61012 46.9408 7.00387 47.7816Z" fill="white"/>
<path d="M45.7646 5.31697C46.5877 5.64976 47.2965 6.20864 47.8096 6.93264C46.9612 6.64812 46.2372 6.07654 45.7646 5.31697Z" fill="white"/>
<path d="M8.93457 7.43055C9.43756 6.68623 10.1235 6.0867 10.9262 5.68279C10.4181 6.42203 9.73478 7.02155 8.93457 7.43055Z" fill="white"/>
<path d="M53.81 14.2438C53.1673 13.6519 52.6872 12.905 52.4128 12.0769C53.1089 12.6205 53.6017 13.3852 53.81 14.2438Z" fill="white"/>
<path d="M5.73877 10.9261C6.14015 10.0801 6.75745 9.35361 7.52972 8.82013C7.3392 9.24945 7.06484 9.63813 6.72697 9.96329C6.47293 10.352 6.13507 10.6797 5.73877 10.9235V10.9261Z" fill="white"/>
<path d="M44.0167 4.06712C43.1835 3.81817 42.4214 3.37869 41.7888 2.78424C42.6348 3.00271 43.4045 3.44727 44.0167 4.06712Z" fill="white"/>
<path d="M4.0519 44.0676C3.45237 43.4706 3.02813 42.7212 2.81982 41.9007C3.41173 42.5053 3.83597 43.2496 4.0519 44.0676Z" fill="white"/>
<path d="M4.45323 12.8568C4.0925 13.4969 3.67588 14.1015 3.20337 14.6655C3.43708 13.8501 3.87656 13.1057 4.47863 12.5087C4.53198 12.6408 4.4075 12.745 4.47863 12.8669L4.45323 12.8593V12.8568Z" fill="white"/>
<path d="M12.7602 4.47866H12.5671C13.1336 3.86643 13.8551 3.41679 14.6553 3.17799C14.5232 3.3736 14.3479 3.53618 14.1396 3.6505L12.7424 4.52438L12.7602 4.4812V4.47866Z" fill="white"/>
<path d="M19.4263 16.962C20.6507 16.9518 21.6516 17.9375 21.6618 19.1645C21.6668 19.6751 21.4941 20.173 21.174 20.5693C19.9775 22.2104 17.0688 21.7302 16.9723 19.5303C16.8351 18.255 17.7572 17.1093 19.0325 16.9721C19.1621 16.9569 19.2942 16.9544 19.4263 16.962Z" fill="white"/>
<path d="M19.3398 21.5931C20.6138 21.5931 21.6465 20.5603 21.6465 19.2864C21.6465 18.0125 20.6138 16.9798 19.3398 16.9798C18.0659 16.9798 17.0332 18.0125 17.0332 19.2864C17.0332 20.5603 18.0659 21.5931 19.3398 21.5931Z" fill="white"/>
</svg>
