<svg width="52" height="52" viewBox="0 0 52 52" fill="none" xmlns="http://www.w3.org/2000/svg">
<path d="M49.6293 25.9993C49.6293 12.7955 38.9255 2.0918 25.7218 2.0918C12.5181 2.0918 1.81433 12.7955 1.81433 25.9993C1.81433 39.2029 12.5181 49.9068 25.7218 49.9068" stroke="#FF82A8" stroke-width="3.58612" stroke-linecap="round" stroke-linejoin="round"/>
<path d="M28.1125 2.20898C28.1125 2.20898 35.2848 11.6539 35.2848 25.9983" stroke="#FF82A8" stroke-width="3.58612" stroke-linecap="round" stroke-linejoin="round"/>
<path d="M23.3311 49.788C23.3311 49.788 16.1588 40.3428 16.1588 25.9983C16.1588 11.6539 23.3311 2.20898 23.3311 2.20898" stroke="#FF82A8" stroke-width="3.58612" stroke-linecap="round" stroke-linejoin="round"/>
<path d="M3.31958 34.3672H25.7218" stroke="#FF82A8" stroke-width="3.58612" stroke-linecap="round" stroke-linejoin="round"/>
<path d="M3.31958 17.6309H48.124" stroke="#FF82A8" stroke-width="3.58612" stroke-linecap="round" stroke-linejoin="round"/>
<path fill-rule="evenodd" clip-rule="evenodd" d="M49.3397 40.1468C50.5203 40.8729 50.4476 42.6404 49.2317 42.7783L43.0956 43.4738L40.3433 49.0019C39.798 50.0974 38.1123 49.5611 37.8335 48.2034L34.8324 33.5816C34.5969 32.434 35.6283 31.7118 36.626 32.3257L49.3397 40.1468Z" stroke="#48BDF7" stroke-width="3.58612"/>
</svg>
