<svg width="58" height="70" viewBox="0 0 58 70" fill="none" xmlns="http://www.w3.org/2000/svg">
<g clip-path="url(#clip0_416_19857)">
<path d="M22.2965 50.7167C23.9634 48.2596 22.0681 36.4867 22.0681 36.4867L17.4917 35.8696L12.9154 35.2525C12.9154 35.2525 7.97115 46.1043 8.93287 48.9191C9.89345 51.7259 12.1002 53.2332 13.0795 54.9722C14.0509 56.7123 13.5721 60.2607 13.104 62.7423C12.636 65.2239 11.9183 66.066 10.4064 66.1268C8.89448 66.1875 7.63742 66.5534 7.56656 67.0839L13.1959 67.8439L18.8253 68.6038C18.8973 68.0813 17.7831 67.3942 16.3352 66.9335C14.8873 66.4729 14.4199 65.4742 14.6295 62.948C14.8323 60.4309 15.31 56.8746 16.7099 55.4556C18.1098 54.0366 20.6377 53.1727 22.3045 50.7156L22.2965 50.7167Z" fill="#48BDF7"/>
<path d="M21.9977 42.1061L16.7417 41.3987L11.4936 40.6902C11.4936 40.6902 9.50225 45.5516 9.63768 47.8741C9.77312 50.1967 12.0268 53.348 15.0869 53.7663C18.1446 54.1686 21.148 51.7326 21.8994 49.5278C22.6428 47.324 22.0056 42.1049 22.0056 42.1049L21.9977 42.1061Z" fill="#FFD990"/>
<path d="M14.175 43.7012C14.1145 44.1327 13.7193 44.441 13.2798 44.3816C12.8484 44.321 12.5389 43.9178 12.5995 43.4864C12.6589 43.047 13.0632 42.7455 13.4947 42.806C13.9341 42.8655 14.2344 43.2618 14.175 43.7012Z" fill="#FFD990"/>
<path d="M14.9408 45.7714C14.9168 45.9456 14.7631 46.065 14.5889 46.041C14.4227 46.0159 14.3032 45.8621 14.3192 45.6891C14.3432 45.5149 14.497 45.3955 14.6712 45.4195C14.8454 45.4435 14.9648 45.5972 14.9408 45.7714Z" fill="#FFD990"/>
<path d="M14.5158 48.8963C14.4335 49.5178 13.8618 49.957 13.2322 49.8758C12.6107 49.7935 12.1715 49.2218 12.2526 48.5923C12.3349 47.9707 12.9146 47.5304 13.5362 47.6127C14.1578 47.695 14.5969 48.2667 14.5158 48.8963V48.8963Z" fill="#FFD990"/>
<path d="M15.6932 51.6255C15.6384 52.0399 15.2568 52.33 14.8345 52.2763C14.4201 52.2215 14.122 51.8411 14.1837 51.4176C14.2386 51.0032 14.619 50.7051 15.0425 50.7668C15.4568 50.8217 15.747 51.2032 15.6932 51.6255Z" fill="#FFD990"/>
<path d="M17.8115 43.1418C17.7486 43.6143 17.3079 43.9453 16.8355 43.8825C16.363 43.8196 16.0331 43.3868 16.0948 42.9064C16.1577 42.434 16.5904 42.104 17.0629 42.1669C17.5353 42.2298 17.8744 42.6694 17.8115 43.1418Z" fill="#FFD990"/>
<path d="M17.4174 48.1434C17.366 48.5247 17.0209 48.7853 16.6395 48.7339C16.2581 48.6824 15.9976 48.3373 16.049 47.956C16.1005 47.5746 16.4535 47.3129 16.8269 47.3655C17.2083 47.4169 17.4688 47.762 17.4174 48.1434V48.1434Z" fill="#FFD990"/>
<path d="M12.0702 40.8526C11.3154 43.0904 10.5335 44.8524 10.3115 44.7783C10.0975 44.703 10.53 42.8282 11.2848 40.5903C12.0385 38.3445 12.8215 36.5905 13.0435 36.6646C13.2575 36.7399 12.825 38.6147 12.0702 40.8526Z" fill="white"/>
<path d="M27.6198 32.5072L50.1445 65.764C50.1445 65.764 43.0002 70.3163 41.6793 68.337C40.3585 66.3578 31.9594 53.9786 31.9594 53.9786C31.9594 53.9786 29 49.8126 29.0155 47.3358C29.0317 44.8683 27.6651 36.3666 21.4649 27.477L23.3542 26.2013L27.6291 32.5064L27.6198 32.5072Z" fill="#48BDF7"/>
<path d="M27.6198 32.5102L50.1445 65.767C50.1445 65.767 57.0214 60.8247 55.6742 58.8665C54.327 56.9082 45.9542 44.508 45.9542 44.508C45.9542 44.508 43.1809 40.2137 40.8823 39.3112C38.5836 38.4086 31.5151 33.7746 25.5535 24.7147L23.3542 26.2043L27.6291 32.5094L27.6198 32.5102Z" fill="#48BDF7"/>
<path d="M22.4719 28.1927C21.1209 27.5194 20.1784 27.6836 18.5505 25.2896C16.1817 21.7862 16.6842 20.2997 18.5556 19.0348L25.4777 29.2511L22.4719 28.1927Z" fill="#FFD990"/>
<path d="M25.6116 26.0701C25.4848 24.5712 25.9873 23.7504 24.3687 21.3556C21.9999 17.8523 20.4363 17.7689 18.5556 19.0346L25.4776 29.2509L25.6108 26.0608L25.6116 26.0701Z" fill="#FFD990"/>
<path d="M28.3943 42.8807C28.3943 42.8807 29.967 42.7382 33.1153 40.6058C36.2899 38.4524 37.0586 37.0089 37.0586 37.0089C33.8518 34.683 29.4695 30.6561 25.5527 24.7051L23.3533 26.1946L21.464 27.4704C25.5405 33.3141 27.5195 38.9696 28.3936 42.8714L28.3943 42.8807Z" fill="#FFD990"/>
<path d="M49.6091 57.9997C50.102 58.7269 50.0202 59.6434 49.4442 60.0391L44.998 63.0128C44.4212 63.3991 43.5449 63.1264 43.0512 62.3899L35.0771 50.4904C34.5843 49.7632 34.6661 48.8468 35.2421 48.4511L39.6882 45.4774C40.2743 45.0902 41.1414 45.3638 41.6351 46.1003L49.6091 57.9997Z" fill="#2EAAE8"/>
<path d="M37.4471 58.3237C40.0514 62.1728 41.9853 65.413 41.7636 65.563C41.5419 65.713 39.2444 62.7194 36.64 58.8702C34.0357 55.0211 32.1018 51.781 32.3235 51.6309C32.5452 51.4809 34.8427 54.4746 37.4471 58.3237Z" fill="white"/>
<path d="M18.6691 20.2602C18.6134 20.3775 17.0491 17.9594 14.9445 15.9152C13.1669 14.1902 11.0331 12.3548 9.62159 11.0771C6.6463 8.38461 2.9469 5.55646 3.64887 4.76566C4.36015 3.97407 8.00121 7.88549 10.1751 10.0832C12.349 12.281 18.8046 19.9768 18.6598 20.261L18.6691 20.2602Z" fill="#FFD990"/>
<path d="M16.3063 18.4912C16.3032 18.5665 15.0677 17.152 13.4535 16.3603C12.1103 15.6676 10.5175 15.2398 9.45113 15.0487C7.17779 14.5566 4.721 14.9989 4.65746 14.4698C4.55969 13.8686 7.60218 13.9206 9.3805 14.4358C11.27 14.4916 16.4857 18.0634 16.2977 18.5013L16.3063 18.4912Z" fill="#FFD990"/>
<path d="M19.5031 18.5973C19.5884 18.6089 18.5729 16.9132 18.322 14.9466C18.0887 13.2972 18.2034 11.4403 18.371 10.2071C18.6539 7.56704 20.0502 4.89837 19.4656 4.63841C18.8018 4.32889 17.7767 7.8382 17.701 9.93563C17.1327 12.0841 19.0143 18.695 19.5023 18.588L19.5031 18.5973Z" fill="#FFD990"/>
<path d="M18.4893 18.0255C18.4893 18.0255 11.5802 4.63872 10.8299 2.86436C10.0797 1.09 9.03557 1.93789 9.50775 2.86374C9.97994 3.78959 15.8089 14.164 18.4893 18.0255Z" fill="#FFD990"/>
<path d="M7.29976 16.3262C7.43812 16.5207 7.70432 16.5638 7.88959 16.4263C8.08417 16.2879 8.12728 16.0217 7.9897 15.8364C7.85133 15.6419 7.58514 15.5987 7.39987 15.7363C7.20529 15.8747 7.16218 16.1409 7.30054 16.3355L7.29976 16.3262Z" fill="#FFD990"/>
<path d="M19.9809 9.16912C20.1193 9.3637 20.3855 9.40681 20.5708 9.26923C20.7654 9.13086 20.8085 8.86466 20.6709 8.67939C20.5325 8.48481 20.2663 8.44171 20.0717 8.58007C19.8772 8.71844 19.8341 8.98464 19.9724 9.17922L19.9809 9.16912Z" fill="#FFD990"/>
<path d="M10.8982 17.0738C10.8026 16.9412 10.8349 16.7697 10.9675 16.6741C11.1001 16.5785 11.2716 16.6108 11.3672 16.7434C11.4527 16.8674 11.4304 17.0475 11.2979 17.1431C11.1653 17.2387 10.9938 17.2063 10.8982 17.0738Z" fill="#FFD990"/>
<path d="M3.06339 10.1503C2.91413 9.93791 2.96419 9.643 3.1766 9.49374C3.38901 9.34449 3.68393 9.39455 3.83318 9.60696C3.98244 9.81937 3.93238 10.1143 3.71997 10.2635C3.50756 10.4128 3.21264 10.3627 3.05408 10.1511L3.06339 10.1503Z" fill="#FFD990"/>
<path d="M8.09642 5.46829C8.00081 5.33573 8.03318 5.1642 8.16574 5.06859C8.2983 4.97298 8.46982 5.00535 8.56543 5.13791C8.65173 5.27126 8.62868 5.44199 8.49612 5.5376C8.36355 5.63321 8.19203 5.60085 8.09642 5.46829Z" fill="#FFD990"/>
<path d="M19.4238 16.4384C19.3383 16.3144 19.3613 16.1436 19.4853 16.0581C19.6094 15.9726 19.7801 15.9957 19.8656 16.1197C19.9511 16.2437 19.9281 16.4145 19.8041 16.5C19.68 16.5855 19.5093 16.5624 19.4238 16.4384Z" fill="#FFD990"/>
<path d="M11.071 9.4809C11.2521 9.7375 11.6037 9.79214 11.8509 9.61181C12.1075 9.43068 12.1622 9.07912 11.9818 8.83183C11.8007 8.57523 11.4492 8.52059 11.2019 8.70093C10.9453 8.88205 10.8906 9.23362 11.071 9.4809Z" fill="#FFD990"/>
<path d="M20.1591 13.3819C20.2874 13.568 20.5443 13.6119 20.7303 13.4836C20.9164 13.3553 20.9603 13.0984 20.832 12.9124C20.7037 12.7263 20.4469 12.6824 20.2608 12.8107C20.0747 12.939 20.0308 13.1959 20.1591 13.3819Z" fill="#FFD990"/>
<path d="M13.3412 2.62411C13.4695 2.81017 13.7264 2.85406 13.9125 2.72579C14.0985 2.59753 14.1424 2.34064 14.0141 2.15458C13.8859 1.96852 13.629 1.92462 13.4429 2.05289C13.2569 2.18116 13.213 2.43805 13.3412 2.62411Z" fill="#FFD990"/>
<path d="M7.40346 1.26887C7.53173 1.45493 7.78862 1.49882 7.97467 1.37056C8.16073 1.24229 8.20463 0.985398 8.07636 0.79934C7.94809 0.613283 7.68189 0.570174 7.50514 0.697655C7.31909 0.825923 7.27519 1.08281 7.41277 1.26808L7.40346 1.26887Z" fill="#FFD990"/>
<path d="M14.6365 7.07084C14.8386 7.35379 15.2282 7.41459 15.5119 7.22179C15.7949 7.01968 15.8557 6.63009 15.6629 6.34635C15.4608 6.06339 15.0704 5.99329 14.7874 6.1954C14.5045 6.3975 14.4344 6.78789 14.6365 7.07084Z" fill="#FFD990"/>
<path d="M16.2138 19.7294C16.2993 19.8535 16.4701 19.8765 16.5941 19.791C16.7181 19.7055 16.7412 19.5348 16.6557 19.4107C16.5702 19.2867 16.3994 19.2636 16.2754 19.3491C16.1513 19.4346 16.1283 19.6054 16.2138 19.7294Z" fill="#FFD990"/>
<path d="M7.80815 12.2521C7.88278 12.3584 8.02558 12.3838 8.13179 12.3092C8.238 12.2345 8.26342 12.0917 8.18879 11.9855C8.11417 11.8793 7.97136 11.8539 7.86516 11.9285C7.75895 12.0031 7.73353 12.1459 7.80815 12.2521Z" fill="#FFD990"/>
<path d="M16.8745 3.82406C17.0028 4.01012 17.2597 4.05401 17.4449 3.91643C17.631 3.78816 17.6749 3.53128 17.5466 3.34522C17.4184 3.15916 17.1615 3.11526 16.9762 3.25284C16.7901 3.38111 16.7462 3.638 16.8745 3.82406Z" fill="#FFD990"/>
</g>
<defs>
<clipPath id="clip0_416_19857">
<rect width="57.5359" height="70" fill="white" transform="translate(0.231934)"/>
</clipPath>
</defs>
</svg>
