<svg width="20" height="20" viewBox="0 0 20 20" fill="none" xmlns="http://www.w3.org/2000/svg">
<path d="M10.8317 8.77778C8.41601 8.12222 7.63916 7.44444 7.63916 6.38889C7.63916 5.17778 8.71398 4.33333 10.5124 4.33333C12.4067 4.33333 13.109 5.27778 13.1729 6.66667H15.5247C15.4502 4.75556 14.3328 3 12.1087 2.43333V0H8.91618V2.4C6.85167 2.86667 5.19155 4.26667 5.19155 6.41111C5.19155 8.97778 7.22413 10.2556 10.1932 11C12.8536 11.6667 13.3857 12.6444 13.3857 13.6778C13.3857 14.4444 12.8643 15.6667 10.5124 15.6667C8.32024 15.6667 7.45825 14.6444 7.31991 13.3333H5C5.1277 15.7667 6.87295 17.1333 8.91618 17.5889V20H12.1087V17.6111C14.1839 17.2222 15.8333 15.9444 15.8333 13.6667C15.8333 10.5111 13.2474 9.44444 10.8317 8.77778Z" fill="white"/>
</svg>
