<svg width="82" height="70" viewBox="0 0 82 70" fill="none" xmlns="http://www.w3.org/2000/svg">
<path d="M74.4624 28.8542L76.1662 21.4035C76.1662 21.4035 76.499 21.0405 77.2551 20.2642C78.0012 19.4879 78.8279 16.6548 79.2816 15.4954C79.7353 14.336 82.3365 10.6257 81.4593 10.0914C80.431 9.4663 78.7876 13.8117 78.4851 13.6605C77.8399 13.358 81.3787 7.57086 80.189 7.00627C78.9892 6.44167 77.3055 12.4103 76.8518 12.2389C76.0352 11.9465 79.453 5.5242 78.0818 5.131C76.6099 4.70755 75.5613 12.0171 74.9766 11.8356C74.3817 11.6541 76.3679 5.65527 75.1984 5.38305C73.9079 5.10075 72.9501 13.6403 71.9116 13.7814C70.8631 13.9226 70.3388 12.0272 69.8044 11.4021C69.2802 10.777 68.4232 10.2829 67.9897 10.6862C67.5561 11.0895 68.2417 11.9667 68.5442 12.501C68.8466 13.0354 69.6129 14.9812 69.754 15.6567C69.8952 16.3221 70.5304 18.1571 70.9538 18.8427C71.3873 19.5282 70.9336 21.2926 70.6513 22.5025C70.2985 24.0349 69.4717 27.5939 69.4717 27.5939L74.4624 28.8542Z" fill="#F4C297"/>
<g style="mix-blend-mode:multiply">
<path d="M74.4624 28.8542L76.1662 21.4035C76.1662 21.4035 76.499 21.0405 77.2551 20.2642C78.0012 19.4879 78.8279 16.6548 79.2816 15.4954C79.7353 14.336 82.3365 10.6257 81.4593 10.0914C80.431 9.4663 78.7876 13.8117 78.4851 13.6605C77.8399 13.358 81.3787 7.57086 80.189 7.00627C78.9892 6.44167 77.3055 12.4103 76.8518 12.2389C76.0352 11.9465 79.453 5.5242 78.0818 5.131C76.6099 4.70755 75.5613 12.0171 74.9766 11.8356C74.3817 11.6541 76.3679 5.65527 75.1984 5.38305C73.9079 5.10075 72.9501 13.6403 71.9116 13.7814C70.8631 13.9226 70.3388 12.0272 69.8044 11.4021C69.2802 10.777 68.4232 10.2829 67.9897 10.6862C67.5561 11.0895 68.2417 11.9667 68.5442 12.501C68.8466 13.0354 69.6129 14.9812 69.754 15.6567C69.8952 16.3221 70.5304 18.1571 70.9538 18.8427C71.3873 19.5282 70.9336 21.2926 70.6513 22.5025C70.2985 24.0349 69.4717 27.5939 69.4717 27.5939L74.4624 28.8542Z" fill="#E8D6C5"/>
</g>
<g style="mix-blend-mode:multiply">
<path d="M73.0106 18.9841C73.2324 18.6513 73.3735 18.2682 73.4643 17.875C73.555 17.4818 73.5852 17.0685 73.5449 16.6551C73.5046 16.2518 73.3836 15.8384 73.1719 15.4755C72.9601 15.1226 72.6577 14.8201 72.3048 14.6387C72.5367 14.9613 72.7182 15.2839 72.8492 15.6368C72.9803 15.9796 73.0509 16.3325 73.0912 16.7055C73.1719 17.4415 73.1013 18.1876 73.0206 18.974L73.0106 18.9841Z" fill="#E8D6C5"/>
</g>
<g style="mix-blend-mode:multiply">
<path d="M78.3339 15.3935C78.0617 14.9902 77.7088 14.6575 77.3358 14.355C76.9628 14.0525 76.5494 13.7904 76.1259 13.5686C75.6924 13.3468 75.2488 13.1653 74.785 13.0242C74.3313 12.883 73.8575 12.7822 73.3735 12.752C73.8171 12.9233 74.2608 13.0947 74.6943 13.2762C75.1278 13.4678 75.5513 13.6593 75.9646 13.8711C76.378 14.0828 76.7813 14.3147 77.1745 14.5667C77.5677 14.8188 77.9609 15.0809 78.3339 15.3834V15.3935Z" fill="#E8D6C5"/>
</g>
<g style="mix-blend-mode:multiply">
<path d="M77.4164 16.7864C77.3257 16.4335 77.1644 16.1008 76.9728 15.7883C76.7813 15.4757 76.5494 15.1833 76.2973 14.9212C76.0352 14.6591 75.7529 14.4272 75.4303 14.2356C75.1177 14.0441 74.7749 13.9029 74.412 13.8223C74.7145 14.034 74.9967 14.2356 75.269 14.4574C75.5412 14.6792 75.8033 14.9111 76.0453 15.1632C76.2973 15.4152 76.5191 15.6774 76.751 15.9496C76.9728 16.2218 77.1946 16.5041 77.4064 16.7965L77.4164 16.7864Z" fill="#E8D6C5"/>
</g>
<path d="M7.53746 28.1784L5.83359 20.7277C5.83359 20.7277 5.4908 20.3648 4.74472 19.5884C3.99865 18.8121 3.17191 15.9791 2.71822 14.8196C2.25444 13.6602 -0.336656 9.94996 0.540486 9.41561C1.56886 8.79052 3.21224 13.1359 3.5147 12.9847C4.15996 12.6721 0.611061 6.89508 1.81083 6.33049C3.0106 5.75581 4.69431 11.7345 5.13792 11.5631C5.96465 11.2707 2.53674 4.84842 3.90791 4.45522C5.37989 4.03177 6.42843 11.3413 7.01319 11.1598C7.60804 10.9783 5.62186 4.9694 6.79139 4.70727C8.08189 4.41489 9.02961 12.9645 10.0781 13.1057C11.1267 13.2468 11.661 11.3514 12.1853 10.7162C12.7197 10.0911 13.5766 9.59709 14.0001 10.0004C14.4336 10.4037 13.748 11.2808 13.4557 11.8151C13.1633 12.3495 12.3869 14.2953 12.2458 14.9708C12.1047 15.6363 11.4695 17.4712 11.0359 18.1568C10.6024 18.8424 11.0561 20.6067 11.3384 21.8166C11.8123 23.8431 11.7114 23.4297 12.518 26.908L7.52738 28.1683L7.53746 28.1784Z" fill="#F4C297"/>
<g style="mix-blend-mode:multiply">
<path d="M8.99939 18.3083C8.77758 17.9756 8.63643 17.5924 8.54569 17.1992C8.45495 16.806 8.42471 16.3927 8.46504 15.9793C8.50536 15.5659 8.62635 15.1627 8.83807 14.7997C9.0498 14.4468 9.35226 14.1444 9.70513 13.9629C9.47325 14.2855 9.29177 14.6182 9.1607 14.961C9.02963 15.3038 8.95906 15.6567 8.91873 16.0297C8.83807 16.7657 8.90865 17.5219 8.98931 18.3083H8.99939Z" fill="#E8D6C5"/>
</g>
<g style="mix-blend-mode:multiply">
<path d="M3.66597 14.7196C3.93818 14.3164 4.29106 13.9836 4.66409 13.6812C5.03713 13.3787 5.4505 13.1166 5.87395 12.8948C6.30748 12.673 6.75109 12.4915 7.21486 12.3503C7.67864 12.2092 8.1525 12.1084 8.62636 12.0781C8.17266 12.2495 7.73913 12.4209 7.3056 12.6024C6.87207 12.7839 6.44862 12.9855 6.03526 13.1972C5.62189 13.409 5.21861 13.6409 4.81532 13.8929C4.42212 14.145 4.02892 14.4071 3.65588 14.7096L3.66597 14.7196Z" fill="#E8D6C5"/>
</g>
<g style="mix-blend-mode:multiply">
<path d="M4.58337 16.1005C4.67411 15.7477 4.83543 15.415 5.02699 15.1024C5.21855 14.7899 5.45043 14.4975 5.70249 14.2354C5.96462 13.9732 6.24692 13.7312 6.56955 13.5498C6.88209 13.3582 7.22488 13.2171 7.58784 13.1465C7.28538 13.3481 6.993 13.5498 6.72078 13.7716C6.44856 13.9934 6.19651 14.2253 5.94446 14.4773C5.70249 14.7193 5.4706 14.9915 5.23871 15.2637C5.0169 15.5359 4.80518 15.8182 4.58337 16.1106V16.1005Z" fill="#E8D6C5"/>
</g>
<path d="M36.9167 43.644L40.9092 43.0996L44.8916 43.644C44.8916 43.644 44.5992 47.2434 45.3151 48.917C45.3151 48.917 43.1575 51.4173 40.8991 51.256C38.6407 51.4173 36.4832 48.917 36.4832 48.917C37.199 47.2434 36.9066 43.644 36.9066 43.644H36.9167Z" fill="#EDB380"/>
<path d="M32.3192 34.8118H32.4906C32.4201 34.227 32.3495 33.6523 32.2789 33.1079C31.916 30.2748 31.0791 22.0176 40.9495 22.0176C50.8199 22.0176 49.9831 30.2849 49.6201 33.1079C49.5495 33.6523 49.479 34.227 49.4084 34.8118H49.5798C51.082 33.7027 51.2131 36.6064 50.5779 37.5944C50.0536 38.4212 50.0436 38.5018 49.731 39.4092C49.4991 40.0746 49.116 40.1654 48.7934 40.0948C48.7531 40.488 48.7127 40.8308 48.6926 41.103C48.5514 42.6254 44.8916 45.6803 44.0548 46.6381C43.2785 47.5354 41.9779 47.1825 41.5645 47.1623C41.1411 47.1422 40.9394 47.1321 40.9394 47.1321C40.9394 47.1321 40.7378 47.1422 40.3244 47.1623C39.9111 47.1825 38.6105 47.5354 37.8341 46.6381C36.9973 45.6803 33.3375 42.6254 33.2065 41.103C33.1762 40.8308 33.146 40.488 33.1056 40.0948C32.783 40.1654 32.3999 40.0746 32.168 39.4092C31.8555 38.5018 31.8454 38.4212 31.3211 37.5944C30.696 36.6064 30.817 33.7027 32.3192 34.8118Z" fill="#F4C297"/>
<path d="M32.652 33.8745L32.4907 34.8121C32.2588 33.6023 32.0168 32.4025 31.8757 31.1927C31.8757 31.1927 31.8757 31.1826 31.8757 31.1725C30.9683 24.7704 33.9123 19.8906 33.9123 19.8906C33.9123 19.8906 33.5191 20.9997 41.9275 20.9997C41.9275 20.9997 41.9275 20.9997 41.9376 20.9997C42.109 20.9997 42.3006 20.9997 42.5022 21.0198C50.5578 21.3727 50.1142 29.0351 50.1142 29.0351H50.1041C50.1646 30.9608 49.7613 32.8864 49.3984 34.8121L49.227 33.8745C49.227 33.8745 49.1362 32.9469 48.7733 31.8077C48.7531 31.7472 48.733 31.6867 48.7128 31.6262C48.6019 31.3136 48.4708 30.9809 48.3196 30.6583C46.1318 26.3028 40.9496 27.7244 40.9496 27.7244C40.9496 27.7244 35.7674 26.3028 33.5796 30.6684C33.4283 30.9809 33.2973 31.3036 33.1864 31.606C33.1662 31.6766 33.1359 31.7371 33.1158 31.8077L32.6621 33.8644L32.652 33.8745Z" fill="#4F515A"/>
<path d="M36.4933 48.9062C36.4933 48.9062 34.8902 50.4387 31.2708 50.8723L40.9395 66.56V51.2453L36.4933 48.9062Z" fill="#EDB380"/>
<path d="M45.3857 48.9062C45.3857 48.9062 46.9887 50.4387 50.6082 50.8723L40.9395 66.56V51.2453L45.3857 48.9062Z" fill="#F4C297"/>
<path d="M45.3857 48.9062C45.3857 48.9062 46.9887 50.4387 50.6082 50.8723L40.9395 66.56V51.2453L45.3857 48.9062Z" fill="#EDB380"/>
<path d="M78.0718 22.9764L68.4434 20.9902C67.9393 22.6739 65.318 37.6761 63.5133 41.0536C61.6985 44.4311 56.1433 49.9359 54.9738 50.2485C53.8042 50.561 48.1078 50.4098 48.1078 50.4098L40.9496 52.2347L33.7913 50.4098C33.7913 50.4098 28.0949 50.561 26.9254 50.2485C25.7558 49.9359 20.2006 44.4311 18.3858 41.0536C16.571 37.6761 13.9497 22.6739 13.4557 20.9902L3.82727 22.9764C3.82727 22.9764 10.3907 43.0902 11.5602 46.5282C12.8709 50.3795 26.5926 63.1737 26.5926 65.5632C26.5926 66.5714 26.5019 68.1442 26.3507 69.9993H55.5484C55.4073 68.1442 55.3065 66.5714 55.3065 65.5632C55.3065 63.1737 69.0282 50.3795 70.3389 46.5282C71.5084 43.0902 78.0718 22.9764 78.0718 22.9764Z" fill="#48BDF7"/>
<path d="M43.2988 6.4726C44.3473 11.4128 38.9937 16.7362 31.3414 18.3594C23.6891 19.9826 16.6316 17.3008 15.5831 12.3605C14.5244 7.42032 19.878 2.10705 27.5404 0.473752C35.1927 -1.14947 42.2502 1.53237 43.2988 6.4726Z" fill="#FF5589"/>
<path d="M40.1632 6.49349C41.0605 10.6977 36.4933 15.2347 29.9702 16.626C23.4471 18.0173 17.4281 15.7287 16.5409 11.5144C15.6436 7.31014 20.2108 2.7732 26.7339 1.38187C33.257 -0.0094592 39.276 2.27918 40.1632 6.49349Z" fill="#FF82A8"/>
<path d="M23.9008 22.4732C23.9008 23.9653 22.691 25.1651 21.2089 25.1651C19.7268 25.1651 18.517 23.9552 18.517 22.4732C18.517 20.9911 19.7268 19.7812 21.2089 19.7812C22.691 19.7812 23.9008 20.9911 23.9008 22.4732Z" fill="#FF5589"/>
<path d="M24.3242 30.0852C24.3242 31.1337 23.4773 31.9907 22.4187 31.9907C21.3601 31.9907 20.5132 31.1438 20.5132 30.0852C20.5132 29.0266 21.3601 28.1797 22.4187 28.1797C23.4773 28.1797 24.3242 29.0266 24.3242 30.0852Z" fill="#FF5589"/>
<path d="M27.1875 36.6387C27.1875 37.3949 26.5725 38.0099 25.8164 38.0099C25.0602 38.0099 24.4452 37.3949 24.4452 36.6387C24.4452 35.8826 25.0602 35.2676 25.8164 35.2676C26.5725 35.2676 27.1875 35.8826 27.1875 36.6387Z" fill="#FF5589"/>
<path d="M29.8593 41.0743C29.8593 41.4473 29.5569 41.7598 29.1737 41.7598C28.7906 41.7598 28.4882 41.4574 28.4882 41.0743C28.4882 40.6911 28.7906 40.3887 29.1737 40.3887C29.5569 40.3887 29.8593 40.6911 29.8593 41.0743Z" fill="#FF5589"/>
<path d="M25.5946 6.3517C25.7257 5.89801 25.9173 5.24267 26.4415 5.20234C26.865 5.18218 27.2279 5.16202 27.6312 5.18218C28.0547 5.20234 28.3269 5.27292 28.1454 5.83752C27.3691 8.23706 26.4718 10.7374 25.9273 13.2176C25.887 13.3991 25.7963 13.5402 25.7055 13.6814C25.5946 13.8729 25.4535 13.9738 25.2418 13.9839C24.7276 14.0141 24.2033 14.0645 23.6891 14.0443C23.1447 14.0242 22.7212 13.7419 22.5902 13.137C22.4793 12.6631 22.3885 12.1792 22.2877 11.6952C22.0457 10.3543 21.6324 9.03354 21.219 7.73295C21.0274 7.18852 20.8157 6.64408 20.7552 6.06941C20.6846 5.65604 20.8762 5.30317 21.2795 5.26284C21.6324 5.20234 21.9752 5.26284 22.3482 5.23259C22.6406 5.20234 22.8221 5.35358 22.943 5.62579C23.0439 5.8476 23.1447 6.07949 23.1951 6.31138C23.6185 7.73295 23.8605 9.98126 24.3747 11.3625C25.03 9.80986 25.1611 7.80353 25.6047 6.38195L25.5946 6.3517Z" fill="white"/>
<path d="M31.0592 13.4703C31.0289 13.7123 30.8878 13.8736 30.6458 13.9038C30.3837 13.9341 29.7989 13.9744 29.5469 13.9442C29.0226 13.9139 28.8008 13.6417 28.8008 13.1275V12.2907C28.8209 10.3448 28.8109 8.0058 28.9016 6.07004C28.9016 5.93897 28.9016 5.79782 28.9117 5.64659C28.9218 5.38446 29.0629 5.21306 29.3351 5.21306C29.688 5.20298 30.3534 5.20298 30.6962 5.23323C30.9886 5.25339 31.0793 5.38446 31.0995 5.68692C31.1197 5.91881 31.0995 6.1507 31.0995 6.39267C31.0995 10.3045 31.0995 11.8269 31.0894 12.9158C31.0894 13.0973 31.0793 13.2787 31.0592 13.4602V13.4703Z" fill="white"/>
<path d="M33.8317 12.8552C33.8216 13.0669 33.8216 13.2887 33.8115 13.5004C33.8015 13.7223 33.6906 13.9541 33.3881 13.9642C33.0151 13.9743 32.6218 13.9844 32.2387 13.9541C31.9766 13.9239 31.8354 13.7727 31.8052 13.5004C31.785 13.3895 31.785 13.2686 31.785 13.1375C31.8254 10.7884 31.8859 8.72153 31.8859 6.7152C31.8859 6.45306 31.8556 6.18084 31.8052 5.91871C31.7548 5.50534 31.8354 5.34403 32.2488 5.27346C33.4889 5.0819 35.1121 5.21296 36.1707 5.99937C38.0763 7.3907 37.7637 10.8791 35.6263 11.7966C35.3138 11.9377 34.971 11.9982 34.6181 11.9982H33.8317V12.8653V12.8552ZM33.9527 9.65917C34.2148 9.65917 34.4568 9.66925 34.6988 9.65917C35.0617 9.639 35.3541 9.4172 35.4045 9.06432C35.4751 8.77194 35.4751 8.4594 35.3138 8.1771C35.1424 7.86455 34.9004 7.69316 34.5677 7.64275C34.3761 7.62258 34.1947 7.64275 33.9628 7.64275C33.9426 8.32833 33.9023 8.99375 33.9527 9.65917Z" fill="white"/>
</svg>
